<?xml version="1.0" encoding="UTF-8" standalone="no"?>
<!-- Created with Inkscape (http://www.inkscape.org/) -->
<svg
   xmlns:dc="http://purl.org/dc/elements/1.1/"
   xmlns:cc="http://creativecommons.org/ns#"
   xmlns:rdf="http://www.w3.org/1999/02/22-rdf-syntax-ns#"
   xmlns:svg="http://www.w3.org/2000/svg"
   xmlns="http://www.w3.org/2000/svg"
   xmlns:xlink="http://www.w3.org/1999/xlink"
   xmlns:sodipodi="http://sodipodi.sourceforge.net/DTD/sodipodi-0.dtd"
   xmlns:inkscape="http://www.inkscape.org/namespaces/inkscape"
   width="408.87726"
   height="286.50717"
   id="svg10428"
   sodipodi:version="0.32"
   inkscape:version="0.46"
   sodipodi:docname="raypicking.svg"
   inkscape:output_extension="org.inkscape.output.svg.inkscape"
   version="1.0">
  <defs
     id="defs10430">
    <linearGradient
       id="linearGradient11186">
      <stop
         style="stop-color:#ff0000;stop-opacity:1;"
         offset="0"
         id="stop11188" />
      <stop
         style="stop-color:#ff0000;stop-opacity:0;"
         offset="1"
         id="stop11190" />
    </linearGradient>
    <linearGradient
       id="linearGradient10983">
      <stop
         style="stop-color:#ffffff;stop-opacity:1;"
         offset="0"
         id="stop10985" />
      <stop
         style="stop-color:#ffff00;stop-opacity:1;"
         offset="1"
         id="stop10987" />
    </linearGradient>
    <inkscape:perspective
       sodipodi:type="inkscape:persp3d"
       inkscape:vp_x="0 : 526.18109 : 1"
       inkscape:vp_y="0 : 1000 : 0"
       inkscape:vp_z="744.09448 : 526.18109 : 1"
       inkscape:persp3d-origin="372.04724 : 350.78739 : 1"
       id="perspective10436" />
    <radialGradient
       inkscape:collect="always"
       xlink:href="#linearGradient10983"
       id="radialGradient11192"
       cx="386.58951"
       cy="237.13838"
       fx="386.58951"
       fy="237.13838"
       r="31.937258"
       gradientTransform="matrix(1,0,0,0.953762,0,10.964794)"
       gradientUnits="userSpaceOnUse" />
    <radialGradient
       inkscape:collect="always"
       xlink:href="#linearGradient10983"
       id="radialGradient11210"
       cx="384.23117"
       cy="223.52063"
       fx="384.23117"
       fy="223.52063"
       r="47.156998"
       gradientTransform="matrix(1,0,0,0.9418006,0,13.008756)"
       gradientUnits="userSpaceOnUse" />
    <radialGradient
       inkscape:collect="always"
       xlink:href="#linearGradient10983"
       id="radialGradient11213"
       gradientUnits="userSpaceOnUse"
       gradientTransform="matrix(0.341499,9.1504013e-2,0,0.3296878,113.90545,217.50362)"
       cx="384.23117"
       cy="223.52063"
       fx="384.23117"
       fy="223.52063"
       r="47.156998" />
  </defs>
  <sodipodi:namedview
     id="base"
     pagecolor="#ffffff"
     bordercolor="#666666"
     borderopacity="1.0"
     gridtolerance="10000"
     guidetolerance="10"
     objecttolerance="10"
     inkscape:pageopacity="0.0"
     inkscape:pageshadow="2"
     inkscape:zoom="2.284304"
     inkscape:cx="204.43863"
     inkscape:cy="143.25359"
     inkscape:document-units="px"
     inkscape:current-layer="layer1"
     showgrid="false"
     inkscape:window-width="1400"
     inkscape:window-height="972"
     inkscape:window-x="0"
     inkscape:window-y="30" />
  <metadata
     id="metadata10433">
    <rdf:RDF>
      <cc:Work
         rdf:about="">
        <dc:format>image/svg+xml</dc:format>
        <dc:type
           rdf:resource="http://purl.org/dc/dcmitype/StillImage" />
      </cc:Work>
    </rdf:RDF>
  </metadata>
  <g
     inkscape:label="Layer 1"
     inkscape:groupmode="layer"
     id="layer1"
     transform="translate(-86.202016,-162.31315)">
    <rect
       style="opacity:1;fill:#ffff00;fill-opacity:0.46694216;fill-rule:nonzero;stroke:#000000;stroke-width:1.01748514;stroke-linecap:butt;stroke-miterlimit:4;stroke-dasharray:none;stroke-opacity:1"
       id="rect10440"
       width="195.34099"
       height="119.04305"
       x="179.00339"
       y="219.15288"
       transform="matrix(0.9659261,0.2588181,0,1,0,0)" />
    <path
       style="fill:none;fill-rule:evenodd;stroke:#000000;stroke-width:0.5;stroke-linecap:butt;stroke-linejoin:miter;stroke-miterlimit:4;stroke-dasharray:none;stroke-opacity:1"
       d="M 263.47281,248.2212 L 263.47281,448.57032"
       id="path10951" />
    <path
       style="fill:none;fill-rule:evenodd;stroke:#000000;stroke-width:0.5;stroke-linecap:butt;stroke-linejoin:miter;stroke-miterlimit:4;stroke-dasharray:none;stroke-opacity:1"
       d="M 86.452016,303.87854 L 459.70517,403.89102"
       id="path10953" />
    <path
       style="opacity:1;fill:url(#radialGradient11192);fill-opacity:1.0;fill-rule:nonzero;stroke:#000000;stroke-width:0.68153118999999995;stroke-linecap:butt;stroke-miterlimit:4;stroke-dasharray:none;stroke-opacity:1"
       d="M 418.18454,237.14144 C 418.29393,247.46747 412.31997,257.32453 403.61841,262.52002 C 392.45731,269.46464 377.19194,268.7299 366.80228,260.61472 C 358.9643,254.73099 354.20104,244.73579 355.10181,234.82454 C 355.85736,224.14353 363.04472,214.54211 372.56252,210.14745 C 384.01482,204.61868 398.59854,206.50915 408.1112,215.0887 C 414.35199,220.55942 418.24441,228.73919 418.18453,237.14144 L 418.18454,237.14144 z"
       id="path10955" />
    <path
       style="opacity:1;fill:url(#radialGradient11213);fill-opacity:1;fill-rule:nonzero;stroke:#000000;stroke-width:0.34599999;stroke-linecap:butt;stroke-miterlimit:4;stroke-dasharray:none;stroke-opacity:1"
       d="M 261.05321,330.62363 C 261.07805,334.58868 259.40668,338.03193 256.6519,340.04834 C 253.40861,342.4857 248.75009,342.94995 244.19878,341.45414 C 239.55176,339.97988 235.00964,336.42851 232.18344,331.85992 C 229.86495,328.1756 228.78682,323.86574 229.3149,320.16245 C 229.84662,316.10703 232.28049,312.927 235.66575,311.44918 C 239.91809,309.52852 245.60146,310.29552 250.50494,313.32648 C 254.78415,315.93314 258.45478,320.30496 260.08588,325.0808 C 260.72521,326.9315 261.05478,328.82134 261.05321,330.62363 L 261.05321,330.62363 z"
       id="path11090" />
    <path
       style="fill:none;fill-rule:evenodd;stroke:#000000;stroke-width:1;stroke-linecap:butt;stroke-linejoin:miter;stroke-miterlimit:4;stroke-dasharray:none;stroke-dashoffset:0;stroke-opacity:1"
       d="M 138.75723,389.62659 L 228.22812,331.82681"
       id="path11016" />
    <path
       style="fill:none;fill-rule:evenodd;stroke:#000000;stroke-width:1;stroke-linecap:butt;stroke-linejoin:miter;stroke-miterlimit:4;stroke-dasharray:none;stroke-dashoffset:0;stroke-opacity:1"
       d="M 284.79217,295.28546 L 285.47672,294.84323"
       id="path11012" />
    <path
       style="fill:none;fill-rule:evenodd;stroke:#000000;stroke-width:1;stroke-linecap:butt;stroke-linejoin:miter;stroke-miterlimit:4;stroke-dasharray:1, 8;stroke-dashoffset:0;stroke-opacity:1"
       d="M 235.78659,326.94391 L 284.79217,295.28546"
       id="path11010" />
    <path
       style="fill:none;fill-rule:evenodd;stroke:#000000;stroke-width:1;stroke-linecap:butt;stroke-linejoin:miter;stroke-miterlimit:4;stroke-dasharray:none;stroke-dashoffset:0;stroke-opacity:1"
       d="M 228.22812,331.82681 L 235.78659,326.94391"
       id="path10997" />
    <path
       style="opacity:1;fill:#ffffff;fill-opacity:1;fill-rule:nonzero;stroke:#000000;stroke-width:1;stroke-linecap:butt;stroke-miterlimit:4;stroke-dasharray:none;stroke-dashoffset:0;stroke-opacity:1"
       d="M 238.4264,338.60805 L 236.25637,326.03942 L 244.02926,336.17021"
       id="path11018" />
    <path
       style="font-size:12px;font-style:normal;font-variant:normal;font-weight:normal;font-stretch:normal;text-align:start;line-height:125%;writing-mode:lr-tb;text-anchor:start;fill:#000000;fill-opacity:1;stroke:none;stroke-width:1px;stroke-linecap:butt;stroke-linejoin:miter;stroke-opacity:1;font-family:Bitstream Vera Sans;-inkscape-font-specification:Bitstream Vera Sans"
       d="M 118.10253,392.52252 L 119.28613,392.52252 L 119.28613,396.21979 L 123.21191,392.52252 L 124.73534,392.52252 L 120.39355,396.60065 L 125.04589,401.27057 L 123.4873,401.27057 L 119.28613,397.05768 L 119.28613,401.27057 L 118.10253,401.27057 L 118.10253,392.52252 M 128.70214,397.97174 C 127.83104,397.97174 127.22753,398.07135 126.89159,398.27057 C 126.55565,398.46979 126.38769,398.80963 126.38769,399.2901 C 126.38769,399.67291 126.51269,399.9776 126.76269,400.20416 C 127.01659,400.42682 127.36034,400.53815 127.79394,400.53815 C 128.39159,400.53815 128.87011,400.32721 129.22948,399.90533 C 129.59276,399.47956 129.7744,398.9151 129.77441,398.21198 L 129.77441,397.97174 L 128.70214,397.97174 M 130.85253,397.52643 L 130.85253,401.27057 L 129.77441,401.27057 L 129.77441,400.27448 C 129.52831,400.67291 129.22167,400.96783 128.85448,401.15924 C 128.48729,401.34674 128.03807,401.44049 127.50683,401.44049 C 126.83495,401.44049 126.2998,401.25299 125.90136,400.87799 C 125.50683,400.49909 125.30956,399.99323 125.30956,399.36041 C 125.30956,398.62213 125.55566,398.06549 126.04784,397.69049 C 126.54394,397.31549 127.28222,397.12799 128.26269,397.12799 L 129.77441,397.12799 L 129.77441,397.02252 C 129.7744,396.52643 129.61034,396.14362 129.28222,395.87408 C 128.958,395.60065 128.50097,395.46393 127.91113,395.46393 C 127.53612,395.46393 127.17089,395.50886 126.81542,395.59869 C 126.45995,395.68854 126.11815,395.82331 125.79003,396.00299 L 125.79003,395.0069 C 126.18456,394.85456 126.56737,394.74128 126.93847,394.66705 C 127.30956,394.58893 127.67089,394.54987 128.02245,394.54987 C 128.97167,394.54987 129.68065,394.79597 130.14941,395.28815 C 130.61815,395.78034 130.85253,396.52643 130.85253,397.52643 M 138.18847,395.96783 C 138.45799,395.48347 138.78026,395.12604 139.15527,394.89557 C 139.53026,394.66511 139.97166,394.54987 140.47948,394.54987 C 141.16307,394.54987 141.69041,394.79011 142.06152,395.27057 C 142.4326,395.74714 142.61815,396.42682 142.61816,397.30963 L 142.61816,401.27057 L 141.53417,401.27057 L 141.53417,397.34479 C 141.53416,396.71589 141.42283,396.24909 141.20019,395.9444 C 140.97752,395.63972 140.63768,395.48737 140.18066,395.48737 C 139.62206,395.48737 139.18065,395.67292 138.85644,396.04401 C 138.53221,396.4151 138.3701,396.92096 138.37011,397.56158 L 138.37011,401.27057 L 137.28613,401.27057 L 137.28613,397.34479 C 137.28612,396.71198 137.17479,396.24518 136.95214,395.9444 C 136.72948,395.63972 136.38573,395.48737 135.92089,395.48737 C 135.37011,395.48737 134.93261,395.67487 134.60839,396.04987 C 134.28417,396.42096 134.12206,396.92487 134.12206,397.56158 L 134.12206,401.27057 L 133.03808,401.27057 L 133.03808,394.70807 L 134.12206,394.70807 L 134.12206,395.7276 C 134.36815,395.32526 134.66308,395.02839 135.00683,394.83698 C 135.35057,394.64558 135.75878,394.54987 136.23144,394.54987 C 136.708,394.54987 137.11229,394.67097 137.44433,394.91315 C 137.78026,395.15534 138.02831,395.5069 138.18847,395.96783 M 150.38769,397.71979 L 150.38769,398.24713 L 145.43066,398.24713 C 145.47753,398.98932 145.70019,399.55573 146.09863,399.94635 C 146.50097,400.33307 147.05956,400.52643 147.77441,400.52643 C 148.18846,400.52643 148.58885,400.47565 148.97558,400.37408 C 149.3662,400.27252 149.75292,400.12018 150.13573,399.91705 L 150.13573,400.93658 C 149.74901,401.10065 149.35253,401.22565 148.94628,401.31158 C 148.54003,401.39752 148.12792,401.44049 147.70995,401.44049 C 146.66308,401.44049 145.833,401.1358 145.21972,400.52643 C 144.61034,399.91705 144.30566,399.09284 144.30566,398.05377 C 144.30566,396.97956 144.59472,396.128 145.17284,395.49908 C 145.75487,394.86628 146.53808,394.54987 147.52245,394.54987 C 148.40526,394.54987 149.10253,394.83503 149.61425,395.40533 C 150.12987,395.97175 150.38768,396.74323 150.38769,397.71979 M 149.30956,397.40338 C 149.30174,396.81354 149.13573,396.34284 148.81152,395.99127 C 148.4912,395.63972 148.06542,395.46393 147.53417,395.46393 C 146.93261,395.46393 146.45018,395.63386 146.08691,395.97369 C 145.72753,396.31354 145.5205,396.79206 145.46581,397.40924 L 149.30956,397.40338 M 155.95995,395.71588 C 155.83885,395.64557 155.70604,395.59479 155.56152,395.56354 C 155.42089,395.52839 155.26464,395.51081 155.09277,395.5108 C 154.48339,395.51081 154.01464,395.71003 153.68652,396.10846 C 153.36229,396.503 153.20019,397.07135 153.20019,397.81354 L 153.20019,401.27057 L 152.1162,401.27057 L 152.1162,394.70807 L 153.20019,394.70807 L 153.20019,395.7276 C 153.42675,395.32917 153.72167,395.03425 154.08495,394.84283 C 154.44823,394.64753 154.88964,394.54987 155.40917,394.54987 C 155.48339,394.54987 155.56542,394.55573 155.65527,394.56744 C 155.7451,394.57526 155.84471,394.58893 155.95409,394.60846 L 155.95995,395.71588 M 160.08495,397.97174 C 159.21386,397.97174 158.61034,398.07135 158.27441,398.27057 C 157.93847,398.46979 157.7705,398.80963 157.7705,399.2901 C 157.7705,399.67291 157.8955,399.9776 158.1455,400.20416 C 158.3994,400.42682 158.74315,400.53815 159.17675,400.53815 C 159.7744,400.53815 160.25292,400.32721 160.6123,399.90533 C 160.97557,399.47956 161.15721,398.9151 161.15722,398.21198 L 161.15722,397.97174 L 160.08495,397.97174 M 162.23534,397.52643 L 162.23534,401.27057 L 161.15722,401.27057 L 161.15722,400.27448 C 160.91112,400.67291 160.60448,400.96783 160.2373,401.15924 C 159.87011,401.34674 159.42089,401.44049 158.88964,401.44049 C 158.21776,401.44049 157.68261,401.25299 157.28417,400.87799 C 156.88964,400.49909 156.69237,399.99323 156.69238,399.36041 C 156.69237,398.62213 156.93847,398.06549 157.43066,397.69049 C 157.92675,397.31549 158.66503,397.12799 159.6455,397.12799 L 161.15722,397.12799 L 161.15722,397.02252 C 161.15721,396.52643 160.99315,396.14362 160.66503,395.87408 C 160.34081,395.60065 159.88378,395.46393 159.29394,395.46393 C 158.91893,395.46393 158.5537,395.50886 158.19823,395.59869 C 157.84276,395.68854 157.50097,395.82331 157.17284,396.00299 L 157.17284,395.0069 C 157.56737,394.85456 157.95019,394.74128 158.32128,394.66705 C 158.69237,394.58893 159.0537,394.54987 159.40527,394.54987 C 160.35448,394.54987 161.06346,394.79597 161.53222,395.28815 C 162.00096,395.78034 162.23534,396.52643 162.23534,397.52643"
       id="text11031" />
    <path
       style="font-size:12px;font-style:normal;font-variant:normal;font-weight:normal;font-stretch:normal;text-align:start;line-height:125%;writing-mode:lr-tb;text-anchor:start;fill:#000000;fill-opacity:1;stroke:none;stroke-width:1px;stroke-linecap:butt;stroke-linejoin:miter;stroke-opacity:1;font-family:Bitstream Vera Sans;-inkscape-font-specification:Bitstream Vera Sans"
       d="M 248.1268,333.33237 L 249.89047,333.33237 L 252.12289,339.28549 L 254.36703,333.33237 L 256.13071,333.33237 L 256.13071,342.08041 L 254.97641,342.08041 L 254.97641,334.39877 L 252.72055,340.39877 L 251.5311,340.39877 L 249.27524,334.39877 L 249.27524,342.08041 L 248.1268,342.08041 L 248.1268,333.33237 M 261.42172,338.78159 C 260.55063,338.78159 259.94711,338.8812 259.61118,339.08041 C 259.27524,339.27964 259.10727,339.61948 259.10727,340.09995 C 259.10727,340.48276 259.23227,340.78745 259.48227,341.01401 C 259.73617,341.23666 260.07992,341.34799 260.51352,341.34799 C 261.11117,341.34799 261.58969,341.13706 261.94907,340.71518 C 262.31234,340.2894 262.49398,339.72495 262.49399,339.02182 L 262.49399,338.78159 L 261.42172,338.78159 M 263.57211,338.33627 L 263.57211,342.08041 L 262.49399,342.08041 L 262.49399,341.08432 C 262.24789,341.48276 261.94125,341.77768 261.57407,341.96909 C 261.20687,342.15659 260.75766,342.25034 260.22641,342.25034 C 259.55453,342.25034 259.01938,342.06284 258.62094,341.68784 C 258.22641,341.30893 258.02914,340.80307 258.02914,340.17026 C 258.02914,339.43198 258.27524,338.87534 258.76743,338.50034 C 259.26352,338.12534 260.0018,337.93784 260.98227,337.93784 L 262.49399,337.93784 L 262.49399,337.83237 C 262.49398,337.33628 262.32992,336.95347 262.0018,336.68393 C 261.67758,336.4105 261.22055,336.27378 260.63071,336.27377 C 260.2557,336.27378 259.89047,336.3187 259.535,336.40854 C 259.17953,336.49839 258.83774,336.63315 258.50961,336.81284 L 258.50961,335.81674 C 258.90414,335.6644 259.28695,335.55112 259.65805,335.4769 C 260.02914,335.39878 260.39047,335.35972 260.74203,335.35971 C 261.69125,335.35972 262.40023,335.60581 262.86899,336.09799 C 263.33773,336.59018 263.57211,337.33628 263.57211,338.33627 M 265.68735,339.49057 L 265.68735,335.51791 L 266.76547,335.51791 L 266.76547,339.44955 C 266.76547,340.07065 266.88656,340.53745 267.12875,340.84995 C 267.37094,341.15854 267.73422,341.31284 268.2186,341.31284 C 268.80062,341.31284 269.25961,341.12729 269.59555,340.7562 C 269.93539,340.3851 270.10531,339.87924 270.10532,339.23862 L 270.10532,335.51791 L 271.18344,335.51791 L 271.18344,342.08041 L 270.10532,342.08041 L 270.10532,341.0726 C 269.84359,341.47104 269.53891,341.76791 269.19125,341.96323 C 268.8475,342.15463 268.44711,342.25034 267.99008,342.25034 C 267.23617,342.25034 266.66391,342.01596 266.27328,341.54721 C 265.88266,341.07846 265.68735,340.39292 265.68735,339.49057 M 277.59946,335.71127 L 277.59946,336.7308 C 277.29476,336.57456 276.97836,336.45737 276.65024,336.37924 C 276.32211,336.30112 275.98227,336.26206 275.63071,336.26205 C 275.09555,336.26206 274.6932,336.34409 274.42368,336.50815 C 274.15805,336.67222 274.02524,336.91831 274.02524,337.24643 C 274.02524,337.49643 274.12094,337.6937 274.31235,337.83823 C 274.50375,337.97886 274.88852,338.11362 275.46664,338.24252 L 275.83578,338.32455 C 276.60141,338.48862 277.14437,338.72104 277.46469,339.02182 C 277.7889,339.3187 277.95101,339.73471 277.95102,340.26987 C 277.95101,340.87924 277.70883,341.36166 277.22446,341.71713 C 276.74398,342.0726 276.08187,342.25034 275.23813,342.25034 C 274.88656,342.25034 274.51938,342.21518 274.13657,342.14487 C 273.75766,342.07846 273.35727,341.9769 272.93539,341.84018 L 272.93539,340.7269 C 273.33383,340.93393 273.72641,341.09018 274.11313,341.19565 C 274.49985,341.29721 274.88266,341.34799 275.26157,341.34799 C 275.76938,341.34799 276.16,341.26206 276.43344,341.09018 C 276.70687,340.9144 276.84359,340.66831 276.8436,340.3519 C 276.84359,340.05893 276.74398,339.83432 276.54477,339.67807 C 276.34945,339.52182 275.91781,339.37143 275.24985,339.2269 L 274.87485,339.13901 C 274.20688,338.99839 273.72446,338.78354 273.42758,338.49448 C 273.13071,338.20151 272.98227,337.80112 272.98227,337.2933 C 272.98227,336.67612 273.20102,336.19956 273.63852,335.86362 C 274.07602,335.52769 274.69711,335.35972 275.5018,335.35971 C 275.90023,335.35972 276.27523,335.38901 276.6268,335.4476 C 276.97836,335.5062 277.30258,335.59409 277.59946,335.71127"
       id="text11035" />
    <path
       style="font-size:12px;font-style:normal;font-variant:normal;font-weight:normal;font-stretch:normal;text-align:start;line-height:125%;writing-mode:lr-tb;text-anchor:start;fill:#000000;fill-opacity:1;stroke:none;stroke-width:1px;stroke-linecap:butt;stroke-linejoin:miter;stroke-opacity:1;font-family:Bitstream Vera Sans;-inkscape-font-specification:Bitstream Vera Sans"
       d="M 365.26483,317.80939 L 365.26483,321.0965 L 366.75311,321.0965 C 367.30389,321.0965 367.72967,320.95392 368.03046,320.66876 C 368.33123,320.38361 368.48162,319.97736 368.48163,319.45001 C 368.48162,318.92658 368.33123,318.52228 368.03046,318.23712 C 367.72967,317.95197 367.30389,317.80939 366.75311,317.80939 L 365.26483,317.80939 M 364.08124,316.83673 L 366.75311,316.83673 C 367.73358,316.83674 368.47381,317.0594 368.97382,317.5047 C 369.47772,317.94611 369.72967,318.59455 369.72968,319.45001 C 369.72967,320.3133 369.47772,320.96564 368.97382,321.40704 C 368.47381,321.84845 367.73358,322.06916 366.75311,322.06915 L 365.26483,322.06915 L 365.26483,325.58478 L 364.08124,325.58478 L 364.08124,316.83673 M 374.86835,320.03009 C 374.74725,319.95978 374.61444,319.909 374.46991,319.87775 C 374.32928,319.8426 374.17303,319.82502 374.00116,319.82501 C 373.39178,319.82502 372.92303,320.02424 372.59491,320.42267 C 372.27069,320.8172 372.10858,321.38556 372.10858,322.12775 L 372.10858,325.58478 L 371.0246,325.58478 L 371.0246,319.02228 L 372.10858,319.02228 L 372.10858,320.04181 C 372.33514,319.64338 372.63006,319.34846 372.99335,319.15704 C 373.35662,318.96174 373.79803,318.86408 374.31757,318.86407 C 374.39178,318.86408 374.47381,318.86994 374.56366,318.88165 C 374.6535,318.88947 374.75311,318.90314 374.86249,318.92267 L 374.86835,320.03009 M 378.29608,319.77814 C 377.71795,319.77814 377.26092,320.00471 376.92499,320.45782 C 376.58905,320.90705 376.42108,321.52424 376.42108,322.30939 C 376.42108,323.09455 376.5871,323.71369 376.91913,324.16681 C 377.25506,324.61603 377.71405,324.84064 378.29608,324.84064 C 378.8703,324.84064 379.32537,324.61408 379.66132,324.16095 C 379.99725,323.70783 380.16522,323.09064 380.16522,322.30939 C 380.16522,321.53205 379.99725,320.91681 379.66132,320.46368 C 379.32537,320.00666 378.8703,319.77814 378.29608,319.77814 M 378.29608,318.86407 C 379.23358,318.86408 379.9699,319.16877 380.50507,319.77814 C 381.04022,320.38752 381.30779,321.23127 381.3078,322.30939 C 381.30779,323.38361 381.04022,324.22736 380.50507,324.84064 C 379.9699,325.45001 379.23358,325.7547 378.29608,325.7547 C 377.35467,325.7547 376.61639,325.45001 376.08124,324.84064 C 375.54999,324.22736 375.28436,323.38361 375.28436,322.30939 C 375.28436,321.23127 375.54999,320.38752 376.08124,319.77814 C 376.61639,319.16877 377.35467,318.86408 378.29608,318.86407 M 383.08905,319.02228 L 384.16718,319.02228 L 384.16718,325.70197 C 384.16717,326.5379 384.00702,327.14337 383.68671,327.51837 C 383.3703,327.89337 382.85858,328.08087 382.15155,328.08087 L 381.74139,328.08087 L 381.74139,327.16681 L 382.0285,327.16681 C 382.43866,327.16681 382.71796,327.0711 382.86639,326.8797 C 383.01483,326.6922 383.08905,326.29962 383.08905,325.70197 L 383.08905,319.02228 M 383.08905,316.46759 L 384.16718,316.46759 L 384.16718,317.83282 L 383.08905,317.83282 L 383.08905,316.46759 M 392.03046,322.034 L 392.03046,322.56134 L 387.07343,322.56134 C 387.1203,323.30353 387.34295,323.86994 387.74139,324.26056 C 388.14373,324.64728 388.70233,324.84064 389.41718,324.84064 C 389.83123,324.84064 390.23162,324.78986 390.61835,324.68829 C 391.00897,324.58673 391.39568,324.43439 391.7785,324.23126 L 391.7785,325.25079 C 391.39178,325.41486 390.99529,325.53986 390.58905,325.62579 C 390.1828,325.71173 389.77069,325.7547 389.35272,325.7547 C 388.30584,325.7547 387.47577,325.45001 386.86249,324.84064 C 386.25311,324.23126 385.94842,323.40705 385.94843,322.36798 C 385.94842,321.29377 386.23749,320.4422 386.81561,319.81329 C 387.39764,319.18049 388.18084,318.86408 389.16522,318.86407 C 390.04803,318.86408 390.74529,319.14924 391.25702,319.71954 C 391.77264,320.28596 392.03045,321.05744 392.03046,322.034 M 390.95233,321.71759 C 390.94451,321.12775 390.7785,320.65705 390.45428,320.30548 C 390.13397,319.95392 389.70819,319.77814 389.17694,319.77814 C 388.57538,319.77814 388.09295,319.94806 387.72968,320.2879 C 387.3703,320.62775 387.16327,321.10627 387.10858,321.72345 L 390.95233,321.71759 M 393.75897,316.46759 L 394.84296,316.46759 L 394.84296,321.85236 L 398.05975,319.02228 L 399.43671,319.02228 L 395.95624,322.09259 L 399.58319,325.58478 L 398.17694,325.58478 L 394.84296,322.3797 L 394.84296,325.58478 L 393.75897,325.58478 L 393.75897,316.46759 M 401.82733,317.159 L 401.82733,319.02228 L 404.04803,319.02228 L 404.04803,319.86017 L 401.82733,319.86017 L 401.82733,323.42267 C 401.82733,323.95783 401.89959,324.30158 402.04413,324.45392 C 402.19256,324.60626 402.49139,324.68243 402.94061,324.68243 L 404.04803,324.68243 L 404.04803,325.58478 L 402.94061,325.58478 C 402.10858,325.58478 401.53436,325.43048 401.21796,325.12189 C 400.90155,324.80939 400.74335,324.24298 400.74335,323.42267 L 400.74335,319.86017 L 399.95233,319.86017 L 399.95233,319.02228 L 400.74335,319.02228 L 400.74335,317.159 L 401.82733,317.159 M 405.47186,319.02228 L 406.54999,319.02228 L 406.54999,325.58478 L 405.47186,325.58478 L 405.47186,319.02228 M 405.47186,316.46759 L 406.54999,316.46759 L 406.54999,317.83282 L 405.47186,317.83282 L 405.47186,316.46759 M 411.34296,319.77814 C 410.76483,319.77814 410.3078,320.00471 409.97186,320.45782 C 409.63592,320.90705 409.46795,321.52424 409.46796,322.30939 C 409.46795,323.09455 409.63397,323.71369 409.966,324.16681 C 410.30194,324.61603 410.76092,324.84064 411.34296,324.84064 C 411.91717,324.84064 412.37225,324.61408 412.70819,324.16095 C 413.04412,323.70783 413.21209,323.09064 413.2121,322.30939 C 413.21209,321.53205 413.04412,320.91681 412.70819,320.46368 C 412.37225,320.00666 411.91717,319.77814 411.34296,319.77814 M 411.34296,318.86407 C 412.28045,318.86408 413.01678,319.16877 413.55194,319.77814 C 414.08709,320.38752 414.35467,321.23127 414.35468,322.30939 C 414.35467,323.38361 414.08709,324.22736 413.55194,324.84064 C 413.01678,325.45001 412.28045,325.7547 411.34296,325.7547 C 410.40155,325.7547 409.66327,325.45001 409.12811,324.84064 C 408.59686,324.22736 408.33124,323.38361 408.33124,322.30939 C 408.33124,321.23127 408.59686,320.38752 409.12811,319.77814 C 409.66327,319.16877 410.40155,318.86408 411.34296,318.86407 M 421.591,321.62384 L 421.591,325.58478 L 420.51288,325.58478 L 420.51288,321.659 C 420.51287,321.03791 420.39178,320.57306 420.1496,320.26447 C 419.9074,319.95588 419.54412,319.80158 419.05975,319.80157 C 418.47772,319.80158 418.01873,319.98713 417.6828,320.35822 C 417.34686,320.72931 417.17889,321.23517 417.17889,321.87579 L 417.17889,325.58478 L 416.09491,325.58478 L 416.09491,319.02228 L 417.17889,319.02228 L 417.17889,320.04181 C 417.4367,319.64728 417.73944,319.35236 418.0871,319.15704 C 418.43866,318.96174 418.84295,318.86408 419.29999,318.86407 C 420.05389,318.86408 420.6242,319.09846 421.01093,319.5672 C 421.39764,320.03205 421.591,320.7176 421.591,321.62384 M 430.55585,322.28595 C 429.68475,322.28595 429.08124,322.38556 428.7453,322.58478 C 428.40936,322.784 428.24139,323.12384 428.24139,323.60431 C 428.24139,323.98712 428.36639,324.29181 428.61639,324.51837 C 428.8703,324.74103 429.21405,324.85236 429.64764,324.85236 C 430.2453,324.85236 430.72381,324.64142 431.08319,324.21954 C 431.44647,323.79376 431.62811,323.22931 431.62811,322.52618 L 431.62811,322.28595 L 430.55585,322.28595 M 432.70624,321.84064 L 432.70624,325.58478 L 431.62811,325.58478 L 431.62811,324.58868 C 431.38201,324.98712 431.07537,325.28204 430.70819,325.47345 C 430.341,325.66095 429.89178,325.7547 429.36053,325.7547 C 428.68866,325.7547 428.1535,325.5672 427.75507,325.1922 C 427.36053,324.81329 427.16327,324.30744 427.16327,323.67462 C 427.16327,322.93634 427.40936,322.3797 427.90155,322.0047 C 428.39764,321.6297 429.13592,321.4422 430.11639,321.4422 L 431.62811,321.4422 L 431.62811,321.33673 C 431.62811,320.84064 431.46405,320.45783 431.13593,320.18829 C 430.8117,319.91486 430.35467,319.77814 429.76483,319.77814 C 429.38983,319.77814 429.02459,319.82306 428.66913,319.9129 C 428.31366,320.00275 427.97186,320.13752 427.64374,320.3172 L 427.64374,319.32111 C 428.03827,319.16877 428.42108,319.05549 428.79218,318.98126 C 429.16327,318.90314 429.52459,318.86408 429.87616,318.86407 C 430.82537,318.86408 431.53436,319.11017 432.00311,319.60236 C 432.47186,320.09455 432.70623,320.84064 432.70624,321.84064 M 434.82147,322.99493 L 434.82147,319.02228 L 435.8996,319.02228 L 435.8996,322.95392 C 435.8996,323.57501 436.02069,324.04181 436.26288,324.35431 C 436.50506,324.6629 436.86834,324.8172 437.35272,324.8172 C 437.93475,324.8172 438.39373,324.63165 438.72968,324.26056 C 439.06951,323.88947 439.23944,323.38361 439.23944,322.74298 L 439.23944,319.02228 L 440.31757,319.02228 L 440.31757,325.58478 L 439.23944,325.58478 L 439.23944,324.57697 C 438.97772,324.9754 438.67303,325.27228 438.32538,325.46759 C 437.98162,325.659 437.58123,325.7547 437.12421,325.7547 C 436.3703,325.7547 435.79803,325.52032 435.40741,325.05157 C 435.01678,324.58283 434.82147,323.89728 434.82147,322.99493 M 445.87225,316.46759 L 445.87225,317.36407 L 444.841,317.36407 C 444.45428,317.36408 444.18475,317.44221 444.03241,317.59845 C 443.88397,317.75471 443.80975,318.03596 443.80975,318.4422 L 443.80975,319.02228 L 445.58514,319.02228 L 445.58514,319.86017 L 443.80975,319.86017 L 443.80975,325.58478 L 442.72577,325.58478 L 442.72577,319.86017 L 441.69452,319.86017 L 441.69452,319.02228 L 442.72577,319.02228 L 442.72577,318.56525 C 442.72577,317.83479 442.89569,317.30354 443.23553,316.9715 C 443.57538,316.63557 444.11444,316.4676 444.85272,316.46759 L 445.87225,316.46759 M 450.63593,316.83673 L 452.3996,316.83673 L 454.63202,322.78986 L 456.87616,316.83673 L 458.63983,316.83673 L 458.63983,325.58478 L 457.48553,325.58478 L 457.48553,317.90314 L 455.22968,323.90314 L 454.04022,323.90314 L 451.78436,317.90314 L 451.78436,325.58478 L 450.63593,325.58478 L 450.63593,316.83673 M 463.49139,319.77814 C 462.91327,319.77814 462.45624,320.00471 462.1203,320.45782 C 461.78436,320.90705 461.61639,321.52424 461.61639,322.30939 C 461.61639,323.09455 461.78241,323.71369 462.11444,324.16681 C 462.45038,324.61603 462.90936,324.84064 463.49139,324.84064 C 464.06561,324.84064 464.52069,324.61408 464.85663,324.16095 C 465.19256,323.70783 465.36053,323.09064 465.36053,322.30939 C 465.36053,321.53205 465.19256,320.91681 464.85663,320.46368 C 464.52069,320.00666 464.06561,319.77814 463.49139,319.77814 M 463.49139,318.86407 C 464.42889,318.86408 465.16522,319.16877 465.70038,319.77814 C 466.23553,320.38752 466.50311,321.23127 466.50311,322.30939 C 466.50311,323.38361 466.23553,324.22736 465.70038,324.84064 C 465.16522,325.45001 464.42889,325.7547 463.49139,325.7547 C 462.54999,325.7547 461.8117,325.45001 461.27655,324.84064 C 460.7453,324.22736 460.47967,323.38361 460.47968,322.30939 C 460.47967,321.23127 460.7453,320.38752 461.27655,319.77814 C 461.8117,319.16877 462.54999,318.86408 463.49139,318.86407 M 473.73944,321.62384 L 473.73944,325.58478 L 472.66132,325.58478 L 472.66132,321.659 C 472.66131,321.03791 472.54022,320.57306 472.29803,320.26447 C 472.05584,319.95588 471.69256,319.80158 471.20819,319.80157 C 470.62616,319.80158 470.16717,319.98713 469.83124,320.35822 C 469.4953,320.72931 469.32733,321.23517 469.32733,321.87579 L 469.32733,325.58478 L 468.24335,325.58478 L 468.24335,319.02228 L 469.32733,319.02228 L 469.32733,320.04181 C 469.58514,319.64728 469.88788,319.35236 470.23553,319.15704 C 470.58709,318.96174 470.99139,318.86408 471.44843,318.86407 C 472.20233,318.86408 472.77264,319.09846 473.15936,319.5672 C 473.54608,320.03205 473.73943,320.7176 473.73944,321.62384 M 475.90155,319.02228 L 476.97968,319.02228 L 476.97968,325.58478 L 475.90155,325.58478 L 475.90155,319.02228 M 475.90155,316.46759 L 476.97968,316.46759 L 476.97968,317.83282 L 475.90155,317.83282 L 475.90155,316.46759 M 480.29608,317.159 L 480.29608,319.02228 L 482.51678,319.02228 L 482.51678,319.86017 L 480.29608,319.86017 L 480.29608,323.42267 C 480.29608,323.95783 480.36834,324.30158 480.51288,324.45392 C 480.66131,324.60626 480.96014,324.68243 481.40936,324.68243 L 482.51678,324.68243 L 482.51678,325.58478 L 481.40936,325.58478 C 480.57733,325.58478 480.00311,325.43048 479.68671,325.12189 C 479.3703,324.80939 479.2121,324.24298 479.2121,323.42267 L 479.2121,319.86017 L 478.42108,319.86017 L 478.42108,319.02228 L 479.2121,319.02228 L 479.2121,317.159 L 480.29608,317.159 M 486.48358,319.77814 C 485.90545,319.77814 485.44842,320.00471 485.11249,320.45782 C 484.77655,320.90705 484.60858,321.52424 484.60858,322.30939 C 484.60858,323.09455 484.7746,323.71369 485.10663,324.16681 C 485.44256,324.61603 485.90155,324.84064 486.48358,324.84064 C 487.0578,324.84064 487.51287,324.61408 487.84882,324.16095 C 488.18475,323.70783 488.35272,323.09064 488.35272,322.30939 C 488.35272,321.53205 488.18475,320.91681 487.84882,320.46368 C 487.51287,320.00666 487.0578,319.77814 486.48358,319.77814 M 486.48358,318.86407 C 487.42108,318.86408 488.1574,319.16877 488.69257,319.77814 C 489.22772,320.38752 489.49529,321.23127 489.4953,322.30939 C 489.49529,323.38361 489.22772,324.22736 488.69257,324.84064 C 488.1574,325.45001 487.42108,325.7547 486.48358,325.7547 C 485.54217,325.7547 484.80389,325.45001 484.26874,324.84064 C 483.73749,324.22736 483.47186,323.38361 483.47186,322.30939 C 483.47186,321.23127 483.73749,320.38752 484.26874,319.77814 C 484.80389,319.16877 485.54217,318.86408 486.48358,318.86407 M 495.07928,320.03009 C 494.95819,319.95978 494.82537,319.909 494.68085,319.87775 C 494.54022,319.8426 494.38397,319.82502 494.2121,319.82501 C 493.60272,319.82502 493.13397,320.02424 492.80585,320.42267 C 492.48163,320.8172 492.31952,321.38556 492.31952,322.12775 L 492.31952,325.58478 L 491.23553,325.58478 L 491.23553,319.02228 L 492.31952,319.02228 L 492.31952,320.04181 C 492.54608,319.64338 492.841,319.34846 493.20428,319.15704 C 493.56756,318.96174 494.00897,318.86408 494.5285,318.86407 C 494.60272,318.86408 494.68475,318.86994 494.7746,318.88165 C 494.86444,318.88947 494.96405,318.90314 495.07343,318.92267 L 495.07928,320.03009"
       id="text11039" />
    <path
       style="font-size:12px;font-style:normal;font-variant:normal;font-weight:normal;font-stretch:normal;text-align:start;line-height:125%;writing-mode:lr-tb;text-anchor:start;fill:#000000;fill-opacity:1;stroke:none;stroke-width:1px;stroke-linecap:butt;stroke-linejoin:miter;stroke-opacity:1;font-family:Bitstream Vera Sans;-inkscape-font-specification:Bitstream Vera Sans"
       d="M 447.50497,402.96527 L 447.50497,406.22894 L 450.76865,406.22894 L 450.76865,407.22504 L 447.50497,407.22504 L 447.50497,410.48871 L 446.5206,410.48871 L 446.5206,407.22504 L 443.25693,407.22504 L 443.25693,406.22894 L 446.5206,406.22894 L 446.5206,402.96527 L 447.50497,402.96527 M 458.62607,403.92621 L 456.25302,407.11957 L 458.74911,410.48871 L 457.47763,410.48871 L 455.56747,407.91058 L 453.65732,410.48871 L 452.38583,410.48871 L 454.93466,407.05511 L 452.60263,403.92621 L 453.87411,403.92621 L 455.61435,406.2641 L 457.35458,403.92621 L 458.62607,403.92621"
       id="text11043" />
    <path
       style="font-size:12px;font-style:normal;font-variant:normal;font-weight:normal;font-stretch:normal;text-align:start;line-height:125%;writing-mode:lr-tb;text-anchor:start;fill:#000000;fill-opacity:1;stroke:none;stroke-width:1px;stroke-linecap:butt;stroke-linejoin:miter;stroke-opacity:1;font-family:Bitstream Vera Sans;-inkscape-font-specification:Bitstream Vera Sans"
       d="M 271.39005,244.80144 L 271.39005,248.06511 L 274.65372,248.06511 L 274.65372,249.0612 L 271.39005,249.0612 L 271.39005,252.32487 L 270.40567,252.32487 L 270.40567,249.0612 L 267.142,249.0612 L 267.142,248.06511 L 270.40567,248.06511 L 270.40567,244.80144 L 271.39005,244.80144 M 279.78653,252.93425 C 279.48184,253.7155 279.18496,254.22526 278.8959,254.46355 C 278.60684,254.70183 278.22012,254.82097 277.73575,254.82097 L 276.87442,254.82097 L 276.87442,253.91862 L 277.50723,253.91862 C 277.80411,253.91862 278.03457,253.84831 278.19864,253.70769 C 278.3627,253.56706 278.54434,253.23503 278.74356,252.71159 L 278.93692,252.21941 L 276.28262,245.76237 L 277.4252,245.76237 L 279.47598,250.89519 L 281.52676,245.76237 L 282.66934,245.76237 L 279.78653,252.93425"
       id="text11047" />
    <path
       style="fill:none;fill-rule:evenodd;stroke:#000000;stroke-width:1;stroke-linecap:butt;stroke-linejoin:miter;stroke-miterlimit:4;stroke-dasharray:none;stroke-dashoffset:0;stroke-opacity:1"
       d="M 285.47672,294.84323 L 367.20935,242.0425"
       id="path11014"
       sodipodi:nodetypes="cc" />
    <path
       style="fill:none;fill-rule:evenodd;stroke:#000000;stroke-width:1;stroke-linecap:butt;stroke-linejoin:miter;stroke-miterlimit:4;stroke-dasharray:1, 8;stroke-dashoffset:0;stroke-opacity:1"
       d="M 358.80812,247.71456 L 407.8137,216.05611"
       id="path11082" />
    <path
       style="fill:none;fill-rule:evenodd;stroke:#000000;stroke-width:1;stroke-linecap:butt;stroke-linejoin:miter;stroke-miterlimit:4;stroke-dasharray:none;stroke-dashoffset:0;stroke-opacity:1"
       d="M 408.49825,215.61388 L 490.23088,162.81315"
       id="path11084"
       sodipodi:nodetypes="cc" />
    <path
       style="font-size:12px;font-style:normal;font-variant:normal;font-weight:normal;font-stretch:normal;text-align:start;line-height:125%;writing-mode:lr-tb;text-anchor:start;fill:#000000;fill-opacity:1;stroke:none;stroke-width:1px;stroke-linecap:butt;stroke-linejoin:miter;stroke-opacity:1;font-family:Bitstream Vera Sans;-inkscape-font-specification:Bitstream Vera Sans"
       d="M 459.44073,195.34032 C 459.69464,195.42626 459.94073,195.60985 460.17902,195.8911 C 460.4212,196.17235 460.66338,196.55907 460.90558,197.05125 L 462.10675,199.44188 L 460.83527,199.44188 L 459.71613,197.19774 C 459.42706,196.6118 459.14581,196.22313 458.87238,196.03172 C 458.60284,195.84032 458.2337,195.74462 457.76495,195.74461 L 456.47589,195.74461 L 456.47589,199.44188 L 455.2923,199.44188 L 455.2923,190.69383 L 457.96417,190.69383 C 458.96417,190.69384 459.71026,190.90283 460.20245,191.32079 C 460.69463,191.73876 460.94073,192.36962 460.94073,193.21336 C 460.94073,193.76415 460.81182,194.22118 460.55402,194.58446 C 460.3001,194.94774 459.92901,195.1997 459.44073,195.34032 M 456.47589,191.66649 L 456.47589,194.77196 L 457.96417,194.77196 C 458.53448,194.77196 458.96417,194.6411 459.25323,194.37938 C 459.5462,194.11376 459.69268,193.72509 459.69269,193.21336 C 459.69268,192.70165 459.5462,192.31689 459.25323,192.05907 C 458.96417,191.79736 458.53448,191.6665 457.96417,191.66649 L 456.47589,191.66649 M 466.31378,196.14305 C 465.44268,196.14305 464.83917,196.24266 464.50323,196.44188 C 464.1673,196.6411 463.99933,196.98094 463.99933,197.46141 C 463.99933,197.84422 464.12433,198.14891 464.37433,198.37547 C 464.62823,198.59813 464.97198,198.70946 465.40558,198.70946 C 466.00323,198.70946 466.48175,198.49852 466.84113,198.07664 C 467.2044,197.65087 467.38604,197.08641 467.38605,196.38329 L 467.38605,196.14305 L 466.31378,196.14305 M 468.46417,195.69774 L 468.46417,199.44188 L 467.38605,199.44188 L 467.38605,198.44579 C 467.13995,198.84422 466.83331,199.13915 466.46613,199.33055 C 466.09893,199.51805 465.64972,199.6118 465.11847,199.6118 C 464.44659,199.6118 463.91144,199.4243 463.513,199.0493 C 463.11847,198.6704 462.9212,198.16454 462.9212,197.53172 C 462.9212,196.79344 463.1673,196.2368 463.65948,195.8618 C 464.15558,195.48681 464.89386,195.29931 465.87433,195.2993 L 467.38605,195.2993 L 467.38605,195.19383 C 467.38604,194.69774 467.22198,194.31493 466.89386,194.04539 C 466.56964,193.77196 466.11261,193.63524 465.52277,193.63524 C 465.14776,193.63524 464.78253,193.68017 464.42706,193.77 C 464.07159,193.85985 463.7298,193.99462 463.40167,194.1743 L 463.40167,193.17821 C 463.7962,193.02587 464.17901,192.91259 464.55011,192.83836 C 464.9212,192.76025 465.28253,192.72118 465.63409,192.72118 C 466.58331,192.72118 467.29229,192.96728 467.76105,193.45946 C 468.22979,193.95165 468.46417,194.69774 468.46417,195.69774 M 473.4212,200.05125 C 473.11651,200.8325 472.81964,201.34227 472.53058,201.58055 C 472.24151,201.81883 471.8548,201.93797 471.37042,201.93797 L 470.50909,201.93797 L 470.50909,201.03563 L 471.14191,201.03563 C 471.43878,201.03563 471.66925,200.96532 471.83331,200.82469 C 471.99737,200.68407 472.17901,200.35203 472.37823,199.8286 L 472.57159,199.33641 L 469.9173,192.87938 L 471.05988,192.87938 L 473.11066,198.01219 L 475.16144,192.87938 L 476.30402,192.87938 L 473.4212,200.05125"
       id="text11086" />
    <path
       style="font-size:12px;font-style:normal;font-variant:normal;font-weight:normal;font-stretch:normal;text-align:start;line-height:125%;writing-mode:lr-tb;text-anchor:start;fill:#000000;fill-opacity:1;stroke:none;stroke-width:1px;stroke-linecap:butt;stroke-linejoin:miter;stroke-opacity:1;font-family:Bitstream Vera Sans;-inkscape-font-specification:Bitstream Vera Sans"
       d="M 407.07101,272.83667 C 407.63742,272.95777 408.07882,273.20972 408.39523,273.59253 C 408.71554,273.97535 408.8757,274.448 408.8757,275.0105 C 408.8757,275.87378 408.57882,276.54175 407.98508,277.0144 C 407.39132,277.48706 406.54757,277.72339 405.45383,277.72339 C 405.08664,277.72339 404.70773,277.68628 404.31711,277.61206 C 403.93039,277.54175 403.53,277.43433 403.11594,277.28979 L 403.11594,276.14722 C 403.44406,276.33862 403.80343,276.48316 404.19406,276.58081 C 404.58468,276.67847 404.99289,276.7273 405.41867,276.72729 C 406.16085,276.7273 406.72531,276.58081 407.11203,276.28784 C 407.50265,275.99487 407.69796,275.56909 407.69797,275.0105 C 407.69796,274.49488 407.51632,274.09253 407.15305,273.80347 C 406.79367,273.5105 406.29171,273.36402 405.64719,273.36401 L 404.62766,273.36401 L 404.62766,272.39136 L 405.69406,272.39136 C 406.27609,272.39136 406.7214,272.27613 407.03,272.04565 C 407.33859,271.81129 407.49288,271.47535 407.49289,271.03784 C 407.49288,270.58863 407.33273,270.24488 407.01242,270.00659 C 406.69601,269.76441 406.24093,269.64332 405.64719,269.64331 C 405.32296,269.64332 404.97531,269.67847 404.60422,269.74878 C 404.23312,269.8191 403.82492,269.92847 403.37961,270.0769 L 403.37961,269.02222 C 403.82883,268.89723 404.24875,268.80348 404.63937,268.74097 C 405.0339,268.67848 405.405,268.64723 405.75266,268.64722 C 406.65109,268.64723 407.36202,268.8523 407.88547,269.26245 C 408.4089,269.66871 408.67062,270.21949 408.67062,270.91479 C 408.67062,271.39918 408.53195,271.80933 408.25461,272.14526 C 407.97726,272.4773 407.58273,272.70777 407.07101,272.83667 M 412.20383,269.77808 L 412.20383,276.58081 L 413.63351,276.58081 C 414.84054,276.58081 415.72335,276.30737 416.28195,275.7605 C 416.84444,275.21363 417.12569,274.35035 417.1257,273.17065 C 417.12569,271.99878 416.84444,271.14136 416.28195,270.59839 C 415.72335,270.05152 414.84054,269.77808 413.63351,269.77808 L 412.20383,269.77808 M 411.02023,268.80542 L 413.45187,268.80542 C 415.14718,268.80543 416.39132,269.15894 417.1843,269.86597 C 417.97726,270.5691 418.37374,271.67066 418.37375,273.17065 C 418.37374,274.67847 417.9753,275.78589 417.17844,276.49292 C 416.38155,277.19995 415.13937,277.55347 413.45187,277.55347 L 411.02023,277.55347 L 411.02023,268.80542 M 427.6257,269.60815 C 426.76632,269.60816 426.08273,269.92847 425.57492,270.56909 C 425.07101,271.20972 424.81906,272.08277 424.81906,273.18823 C 424.81906,274.2898 425.07101,275.16089 425.57492,275.80151 C 426.08273,276.44214 426.76632,276.76245 427.6257,276.76245 C 428.48507,276.76245 429.16476,276.44214 429.66476,275.80151 C 430.16866,275.16089 430.42062,274.2898 430.42062,273.18823 C 430.42062,272.08277 430.16866,271.20972 429.66476,270.56909 C 429.16476,269.92847 428.48507,269.60816 427.6257,269.60815 M 427.6257,268.64722 C 428.85226,268.64723 429.83273,269.05933 430.56711,269.88354 C 431.30147,270.70386 431.66866,271.80543 431.66867,273.18823 C 431.66866,274.56714 431.30147,275.6687 430.56711,276.49292 C 429.83273,277.31323 428.85226,277.72339 427.6257,277.72339 C 426.39523,277.72339 425.41086,277.31323 424.67258,276.49292 C 423.9382,275.67261 423.57101,274.57105 423.57101,273.18823 C 423.57101,271.80543 423.9382,270.70386 424.67258,269.88354 C 425.41086,269.05933 426.39523,268.64723 427.6257,268.64722 M 438.1843,274.27808 C 438.18429,273.48511 438.02023,272.86402 437.69211,272.41479 C 437.36788,271.96168 436.92062,271.73511 436.35031,271.73511 C 435.78,271.73511 435.33078,271.96168 435.00266,272.41479 C 434.67843,272.86402 434.51632,273.48511 434.51633,274.27808 C 434.51632,275.07105 434.67843,275.69409 435.00266,276.14722 C 435.33078,276.59644 435.78,276.82105 436.35031,276.82104 C 436.92062,276.82105 437.36788,276.59644 437.69211,276.14722 C 438.02023,275.69409 438.18429,275.07105 438.1843,274.27808 M 434.51633,271.98706 C 434.74289,271.59644 435.02804,271.30738 435.3718,271.11987 C 435.71945,270.92847 436.13351,270.83277 436.61398,270.83276 C 437.41085,270.83277 438.05734,271.14918 438.55344,271.78198 C 439.05343,272.4148 439.30343,273.24683 439.30344,274.27808 C 439.30343,275.30933 439.05343,276.14136 438.55344,276.77417 C 438.05734,277.40698 437.41085,277.72339 436.61398,277.72339 C 436.13351,277.72339 435.71945,277.62964 435.3718,277.44214 C 435.02804,277.25073 434.74289,276.95972 434.51633,276.56909 L 434.51633,277.55347 L 433.43234,277.55347 L 433.43234,268.43628 L 434.51633,268.43628 L 434.51633,271.98706 M 441.09055,270.99097 L 442.16867,270.99097 L 442.16867,277.67065 C 442.16867,278.50659 442.00851,279.11206 441.6882,279.48706 C 441.37179,279.86206 440.86008,280.04956 440.15305,280.04956 L 439.74289,280.04956 L 439.74289,279.1355 L 440.03,279.1355 C 440.44015,279.1355 440.71945,279.03979 440.86789,278.84839 C 441.01633,278.66089 441.09054,278.26831 441.09055,277.67065 L 441.09055,270.99097 M 441.09055,268.43628 L 442.16867,268.43628 L 442.16867,269.80151 L 441.09055,269.80151 L 441.09055,268.43628 M 450.03195,274.00269 L 450.03195,274.53003 L 445.07492,274.53003 C 445.12179,275.27222 445.34445,275.83862 445.74289,276.22925 C 446.14523,276.61597 446.70382,276.80933 447.41867,276.80933 C 447.83273,276.80933 448.23312,276.75855 448.61984,276.65698 C 449.01046,276.55542 449.39718,276.40308 449.78,276.19995 L 449.78,277.21948 C 449.39327,277.38355 448.99679,277.50854 448.59055,277.59448 C 448.18429,277.68042 447.77218,277.72339 447.35422,277.72339 C 446.30734,277.72339 445.47726,277.4187 444.86398,276.80933 C 444.25461,276.19995 443.94992,275.37573 443.94992,274.33667 C 443.94992,273.26246 444.23898,272.41089 444.81711,271.78198 C 445.39914,271.14918 446.18234,270.83277 447.16672,270.83276 C 448.04953,270.83277 448.74679,271.11793 449.25851,271.68823 C 449.77413,272.25464 450.03195,273.02613 450.03195,274.00269 M 448.95383,273.68628 C 448.94601,273.09644 448.77999,272.62574 448.45578,272.27417 C 448.13546,271.92261 447.70968,271.74683 447.17844,271.74683 C 446.57687,271.74683 446.09445,271.91675 445.73117,272.25659 C 445.37179,272.59644 445.16476,273.07496 445.11008,273.69214 L 448.95383,273.68628 M 451.76047,268.43628 L 452.84445,268.43628 L 452.84445,273.82104 L 456.06125,270.99097 L 457.4382,270.99097 L 453.95773,274.06128 L 457.58469,277.55347 L 456.17844,277.55347 L 452.84445,274.34839 L 452.84445,277.55347 L 451.76047,277.55347 L 451.76047,268.43628 M 459.82883,269.12769 L 459.82883,270.99097 L 462.04953,270.99097 L 462.04953,271.82886 L 459.82883,271.82886 L 459.82883,275.39136 C 459.82882,275.92652 459.90109,276.27026 460.04562,276.42261 C 460.19406,276.57495 460.49289,276.65112 460.94211,276.65112 L 462.04953,276.65112 L 462.04953,277.55347 L 460.94211,277.55347 C 460.11007,277.55347 459.53586,277.39917 459.21945,277.09058 C 458.90304,276.77808 458.74484,276.21167 458.74484,275.39136 L 458.74484,271.82886 L 457.95383,271.82886 L 457.95383,270.99097 L 458.74484,270.99097 L 458.74484,269.12769 L 459.82883,269.12769"
       id="text11094" />
  </g>
</svg>
