<?xml version="1.0" encoding="UTF-8" standalone="no"?>
<!-- Created with Inkscape (http://www.inkscape.org/) -->
<svg
   xmlns:dc="http://purl.org/dc/elements/1.1/"
   xmlns:cc="http://creativecommons.org/ns#"
   xmlns:rdf="http://www.w3.org/1999/02/22-rdf-syntax-ns#"
   xmlns:svg="http://www.w3.org/2000/svg"
   xmlns="http://www.w3.org/2000/svg"
   xmlns:sodipodi="http://sodipodi.sourceforge.net/DTD/sodipodi-0.dtd"
   xmlns:inkscape="http://www.inkscape.org/namespaces/inkscape"
   width="350.47876"
   height="144.51978"
   id="svg3185"
   sodipodi:version="0.32"
   inkscape:version="0.46"
   sodipodi:docname="gui_klassendiagramm2.svg"
   inkscape:output_extension="org.inkscape.output.svg.inkscape"
   version="1.0">
  <defs
     id="defs3187">
    <marker
       inkscape:stockid="EmptyTriangleInL"
       orient="auto"
       refY="0"
       refX="0"
       id="EmptyTriangleInL"
       style="overflow:visible">
      <path
         id="path4196"
         d="M 5.77,0 L -2.88,5 L -2.88,-5 L 5.77,0 z"
         style="fill:#ffffff;fill-rule:evenodd;stroke:#000000;stroke-width:1pt;marker-start:none"
         transform="matrix(-0.8,0,0,-0.8,4.8,0)" />
    </marker>
    <inkscape:perspective
       sodipodi:type="inkscape:persp3d"
       inkscape:vp_x="0 : 526.18109 : 1"
       inkscape:vp_y="0 : 1000 : 0"
       inkscape:vp_z="744.09448 : 526.18109 : 1"
       inkscape:persp3d-origin="372.04724 : 350.78739 : 1"
       id="perspective3193" />
  </defs>
  <sodipodi:namedview
     id="base"
     pagecolor="#ffffff"
     bordercolor="#666666"
     borderopacity="1.0"
     gridtolerance="10000"
     guidetolerance="10"
     objecttolerance="10"
     inkscape:pageopacity="0.0"
     inkscape:pageshadow="2"
     inkscape:zoom="2.6649261"
     inkscape:cx="155.6642"
     inkscape:cy="72.259888"
     inkscape:document-units="px"
     inkscape:current-layer="layer1"
     showgrid="false"
     inkscape:window-width="1400"
     inkscape:window-height="972"
     inkscape:window-x="0"
     inkscape:window-y="30" />
  <metadata
     id="metadata3190">
    <rdf:RDF>
      <cc:Work
         rdf:about="">
        <dc:format>image/svg+xml</dc:format>
        <dc:type
           rdf:resource="http://purl.org/dc/dcmitype/StillImage" />
      </cc:Work>
    </rdf:RDF>
  </metadata>
  <g
     inkscape:label="Layer 1"
     inkscape:groupmode="layer"
     id="layer1"
     transform="translate(-39.975467,-18.975669)">
    <g
       id="g3230"
       transform="translate(-23.555747,-29.374036)">
      <rect
         y="48.849705"
         x="177.25464"
         height="26.51841"
         width="128.40494"
         id="rect3195"
         style="fill:#ffffff;fill-rule:evenodd;stroke:#000000;stroke-width:1px;stroke-linecap:butt;stroke-linejoin:miter;stroke-opacity:1" />
      <path
         style="font-size:40px;font-style:normal;font-weight:normal;line-height:125%;fill:#000000;fill-opacity:1;stroke:none;stroke-width:1px;stroke-linecap:butt;stroke-linejoin:miter;stroke-opacity:1;font-family:Bitstream Vera Sans"
         d="M 189.01167,62.083023 L 189.01167,65.288101 L 190.91011,65.288101 C 191.54682,65.288102 192.01753,65.157243 192.32222,64.895523 C 192.63081,64.6299 192.7851,64.225603 192.78511,63.682632 C 192.7851,63.135761 192.63081,62.733417 192.32222,62.475601 C 192.01753,62.213886 191.54682,62.083027 190.91011,62.083023 L 189.01167,62.083023 M 189.01167,58.485367 L 189.01167,61.122086 L 190.76363,61.122086 C 191.34175,61.122091 191.77143,61.014669 192.05269,60.79982 C 192.33784,60.581076 192.48042,60.249045 192.48042,59.803726 C 192.48042,59.362327 192.33784,59.032249 192.05269,58.813492 C 191.77143,58.594749 191.34175,58.485375 190.76363,58.485367 L 189.01167,58.485367 M 187.82808,57.512711 L 190.85152,57.512711 C 191.75386,57.512719 192.44917,57.700219 192.93745,58.075211 C 193.42573,58.450218 193.66987,58.983421 193.66988,59.67482 C 193.66987,60.209982 193.54487,60.635763 193.29488,60.952164 C 193.04487,61.268575 192.67768,61.46584 192.19331,61.543961 C 192.77534,61.668965 193.22651,61.930684 193.54683,62.329117 C 193.87104,62.723652 194.03315,63.217792 194.03316,63.811539 C 194.03315,64.59279 193.76753,65.196305 193.23628,65.622086 C 192.70503,66.047867 191.94917,66.260757 190.9687,66.260757 L 187.82808,66.260757 L 187.82808,57.512711 M 198.99019,62.961929 C 198.11909,62.961933 197.51558,63.061542 197.17964,63.260757 C 196.8437,63.459979 196.67573,63.799822 196.67574,64.280289 C 196.67573,64.663103 196.80073,64.96779 197.05074,65.194351 C 197.30464,65.417008 197.64839,65.528336 198.08199,65.528336 C 198.67964,65.528336 199.15815,65.317399 199.51753,64.895523 C 199.88081,64.469744 200.06245,63.905291 200.06245,63.202164 L 200.06245,62.961929 L 198.99019,62.961929 M 201.14058,62.516617 L 201.14058,66.260757 L 200.06245,66.260757 L 200.06245,65.264664 C 199.81636,65.663102 199.50972,65.958023 199.14253,66.149429 C 198.77534,66.336929 198.32612,66.430679 197.79488,66.430679 C 197.123,66.430679 196.58784,66.243179 196.18941,65.868179 C 195.79488,65.489274 195.59761,64.983415 195.59761,64.350601 C 195.59761,63.612323 195.8437,63.055683 196.33589,62.680679 C 196.83198,62.305683 197.57026,62.118183 198.55074,62.118179 L 200.06245,62.118179 L 200.06245,62.012711 C 200.06245,61.516622 199.89839,61.133809 199.57027,60.864273 C 199.24604,60.590841 198.78901,60.454123 198.19917,60.454117 C 197.82417,60.454123 197.45894,60.499044 197.10347,60.588882 C 196.748,60.678732 196.4062,60.813497 196.07808,60.993179 L 196.07808,59.997086 C 196.47261,59.844748 196.85542,59.731467 197.22652,59.657242 C 197.59761,59.579124 197.95894,59.540061 198.3105,59.540054 C 199.25972,59.540061 199.9687,59.786155 200.43745,60.278336 C 200.9062,60.770529 201.14057,61.516622 201.14058,62.516617 M 207.55074,59.891617 L 207.55074,60.911148 C 207.24604,60.754904 206.92964,60.637716 206.60152,60.559586 C 206.27339,60.481466 205.93354,60.442404 205.58199,60.442398 C 205.04683,60.442404 204.64448,60.524435 204.37495,60.688492 C 204.10933,60.85256 203.97651,61.098653 203.97652,61.426773 C 203.97651,61.676778 204.07222,61.874043 204.26363,62.01857 C 204.45503,62.159199 204.8398,62.293965 205.41792,62.422867 L 205.78706,62.504898 C 206.55268,62.668964 207.09565,62.901386 207.41597,63.202164 C 207.74018,63.499041 207.90229,63.915057 207.9023,64.450211 C 207.90229,65.059587 207.66011,65.542008 207.17574,65.897476 C 206.69526,66.252945 206.03315,66.430679 205.18941,66.430679 C 204.83784,66.430679 204.47066,66.395523 204.08784,66.325211 C 203.70894,66.258804 203.30855,66.157242 202.88667,66.020523 L 202.88667,64.907242 C 203.28511,65.114274 203.67769,65.270524 204.06441,65.375992 C 204.45112,65.477555 204.83394,65.528336 205.21284,65.528336 C 205.72065,65.528336 206.11128,65.442399 206.38472,65.270523 C 206.65815,65.094743 206.79487,64.848649 206.79488,64.532242 C 206.79487,64.239275 206.69526,64.014666 206.49605,63.858414 C 206.30073,63.702166 205.86909,63.551776 205.20113,63.407242 L 204.82613,63.319351 C 204.15816,63.178729 203.67573,62.963886 203.37886,62.67482 C 203.08198,62.381855 202.93355,61.981465 202.93355,61.473648 C 202.93355,60.856466 203.1523,60.379904 203.5898,60.043961 C 204.0273,59.70803 204.64839,59.540061 205.45308,59.540054 C 205.85151,59.540061 206.22651,59.569358 206.57808,59.627945 C 206.92964,59.686545 207.25386,59.774436 207.55074,59.891617 M 209.62495,59.698257 L 210.70308,59.698257 L 210.70308,66.260757 L 209.62495,66.260757 L 209.62495,59.698257 M 209.62495,57.14357 L 210.70308,57.14357 L 210.70308,58.508804 L 209.62495,58.508804 L 209.62495,57.14357 M 217.67574,59.950211 L 217.67574,60.958023 C 217.37104,60.79006 217.0644,60.66506 216.75581,60.583023 C 216.45112,60.497091 216.14253,60.454123 215.83003,60.454117 C 215.13081,60.454123 214.58784,60.676779 214.20113,61.122086 C 213.81441,61.563497 213.62105,62.18459 213.62105,62.985367 C 213.62105,63.786151 213.81441,64.409197 214.20113,64.854507 C 214.58784,65.295915 215.13081,65.516618 215.83003,65.516617 C 216.14253,65.516618 216.45112,65.475602 216.75581,65.39357 C 217.0644,65.307633 217.37104,65.18068 217.67574,65.012711 L 217.67574,66.008804 C 217.37495,66.149429 217.06245,66.254898 216.73824,66.325211 C 216.41792,66.395523 216.07612,66.430679 215.71284,66.430679 C 214.72456,66.430679 213.93941,66.120133 213.35738,65.499039 C 212.77534,64.877946 212.48433,64.040057 212.48433,62.985367 C 212.48433,61.915059 212.7773,61.073263 213.36324,60.459976 C 213.95308,59.846701 214.75972,59.540061 215.78316,59.540054 C 216.11518,59.540061 216.4394,59.575217 216.75581,59.645523 C 217.07221,59.711936 217.37885,59.813498 217.67574,59.950211 M 225.57417,65.012711 L 225.57417,62.663101 L 223.64058,62.663101 L 223.64058,61.690445 L 226.74605,61.690445 L 226.74605,65.446304 C 226.28901,65.770524 225.7851,66.016617 225.23433,66.184586 C 224.68354,66.348648 224.09565,66.430679 223.47066,66.430679 C 222.10347,66.430679 221.03315,66.032242 220.25972,65.235367 C 219.49019,64.434587 219.10542,63.321307 219.10542,61.895523 C 219.10542,60.465841 219.49019,59.352561 220.25972,58.555679 C 221.03315,57.754907 222.10347,57.354516 223.47066,57.354507 C 224.04096,57.354516 224.58198,57.424829 225.0937,57.565445 C 225.60932,57.706079 226.08393,57.91311 226.51753,58.186539 L 226.51753,59.446304 C 226.08002,59.075218 225.61518,58.795921 225.123,58.608414 C 224.63081,58.420922 224.11323,58.327172 223.57027,58.327164 C 222.49995,58.327172 221.69526,58.625999 221.1562,59.223648 C 220.62105,59.821311 220.35347,60.711935 220.35347,61.895523 C 220.35347,63.075214 220.62105,63.963885 221.1562,64.561539 C 221.69526,65.159196 222.49995,65.458024 223.57027,65.458023 C 223.98823,65.458024 224.36128,65.422868 224.68941,65.352554 C 225.01753,65.278337 225.31245,65.165055 225.57417,65.012711 M 228.75581,63.670914 L 228.75581,59.698257 L 229.83394,59.698257 L 229.83394,63.629898 C 229.83394,64.250994 229.95503,64.71779 230.19722,65.030289 C 230.4394,65.338883 230.80269,65.49318 231.28706,65.493179 C 231.86909,65.49318 232.32807,65.307633 232.66402,64.936539 C 233.00386,64.565447 233.17378,64.059588 233.17378,63.418961 L 233.17378,59.698257 L 234.25191,59.698257 L 234.25191,66.260757 L 233.17378,66.260757 L 233.17378,65.252945 C 232.91206,65.651383 232.60737,65.948258 232.25972,66.14357 C 231.91597,66.334976 231.51558,66.430679 231.05855,66.430679 C 230.30464,66.430679 229.73237,66.196304 229.34175,65.727554 C 228.95112,65.258805 228.75581,64.573259 228.75581,63.670914 M 236.48433,59.698257 L 237.56245,59.698257 L 237.56245,66.260757 L 236.48433,66.260757 L 236.48433,59.698257 M 236.48433,57.14357 L 237.56245,57.14357 L 237.56245,58.508804 L 236.48433,58.508804 L 236.48433,57.14357 M 246.41011,58.186539 L 246.41011,59.434586 C 246.01167,59.063499 245.58588,58.786156 245.13277,58.602554 C 244.68354,58.418968 244.20503,58.327172 243.69722,58.327164 C 242.69722,58.327172 241.93159,58.633812 241.40034,59.247086 C 240.86909,59.856467 240.60347,60.739279 240.60347,61.895523 C 240.60347,63.04787 240.86909,63.930682 241.40034,64.543961 C 241.93159,65.153337 242.69722,65.458024 243.69722,65.458023 C 244.20503,65.458024 244.68354,65.366227 245.13277,65.182632 C 245.58588,64.99904 246.01167,64.721696 246.41011,64.350601 L 246.41011,65.586929 C 245.99604,65.86818 245.55659,66.079117 245.09175,66.219742 C 244.63081,66.360367 244.14253,66.430679 243.62691,66.430679 C 242.30268,66.430679 241.25972,66.026383 240.498,65.217789 C 239.73628,64.405291 239.35542,63.29787 239.35542,61.895523 C 239.35542,60.489279 239.73628,59.381858 240.498,58.573257 C 241.25972,57.760766 242.30268,57.354516 243.62691,57.354507 C 244.15034,57.354516 244.64253,57.424829 245.10347,57.565445 C 245.56831,57.702172 246.00385,57.909203 246.41011,58.186539 M 250.74605,60.454117 C 250.16792,60.454123 249.71089,60.680685 249.37495,61.133804 C 249.03901,61.583028 248.87105,62.200215 248.87105,62.985367 C 248.87105,63.770526 249.03706,64.389666 249.36909,64.842789 C 249.70503,65.292008 250.16401,65.516618 250.74605,65.516617 C 251.32026,65.516618 251.77534,65.290055 252.11128,64.836929 C 252.44721,64.383806 252.61518,63.766619 252.61519,62.985367 C 252.61518,62.208027 252.44721,61.592793 252.11128,61.139664 C 251.77534,60.682638 251.32026,60.454123 250.74605,60.454117 M 250.74605,59.540054 C 251.68354,59.540061 252.41987,59.844748 252.95503,60.454117 C 253.49018,61.063497 253.75776,61.907246 253.75777,62.985367 C 253.75776,64.059588 253.49018,64.903337 252.95503,65.516617 C 252.41987,66.125992 251.68354,66.430679 250.74605,66.430679 C 249.80464,66.430679 249.06636,66.125992 248.5312,65.516617 C 247.99995,64.903337 247.73433,64.059588 247.73433,62.985367 C 247.73433,61.907246 247.99995,61.063497 248.5312,60.454117 C 249.06636,59.844748 249.80464,59.540061 250.74605,59.540054 M 260.99409,62.29982 L 260.99409,66.260757 L 259.91597,66.260757 L 259.91597,62.334976 C 259.91596,61.713887 259.79487,61.249044 259.55269,60.940445 C 259.3105,60.631857 258.94722,60.47756 258.46284,60.477554 C 257.88081,60.47756 257.42183,60.663107 257.08589,61.034195 C 256.74995,61.405294 256.58198,61.911152 256.58199,62.551773 L 256.58199,66.260757 L 255.498,66.260757 L 255.498,59.698257 L 256.58199,59.698257 L 256.58199,60.717789 C 256.8398,60.323263 257.14253,60.028342 257.49019,59.833023 C 257.84175,59.637717 258.24604,59.540061 258.70308,59.540054 C 259.45698,59.540061 260.02729,59.774436 260.41402,60.243179 C 260.80073,60.708029 260.99409,61.393575 260.99409,62.29982 M 264.22261,57.834976 L 264.22261,59.698257 L 266.44331,59.698257 L 266.44331,60.536148 L 264.22261,60.536148 L 264.22261,64.098648 C 264.22261,64.633806 264.29487,64.977556 264.43941,65.129898 C 264.58784,65.282243 264.88667,65.358415 265.33589,65.358414 L 266.44331,65.358414 L 266.44331,66.260757 L 265.33589,66.260757 C 264.50386,66.260757 263.92964,66.106461 263.61324,65.797867 C 263.29683,65.485368 263.13862,64.918962 263.13863,64.098648 L 263.13863,60.536148 L 262.34761,60.536148 L 262.34761,59.698257 L 263.13863,59.698257 L 263.13863,57.834976 L 264.22261,57.834976 M 270.84956,62.961929 C 269.97847,62.961933 269.37495,63.061542 269.03902,63.260757 C 268.70308,63.459979 268.53511,63.799822 268.53511,64.280289 C 268.53511,64.663103 268.66011,64.96779 268.91011,65.194351 C 269.16401,65.417008 269.50776,65.528336 269.94136,65.528336 C 270.53901,65.528336 271.01753,65.317399 271.37691,64.895523 C 271.74018,64.469744 271.92182,63.905291 271.92183,63.202164 L 271.92183,62.961929 L 270.84956,62.961929 M 272.99995,62.516617 L 272.99995,66.260757 L 271.92183,66.260757 L 271.92183,65.264664 C 271.67573,65.663102 271.36909,65.958023 271.00191,66.149429 C 270.63472,66.336929 270.1855,66.430679 269.65425,66.430679 C 268.98237,66.430679 268.44722,66.243179 268.04878,65.868179 C 267.65425,65.489274 267.45698,64.983415 267.45699,64.350601 C 267.45698,63.612323 267.70308,63.055683 268.19527,62.680679 C 268.69136,62.305683 269.42964,62.118183 270.41011,62.118179 L 271.92183,62.118179 L 271.92183,62.012711 C 271.92182,61.516622 271.75776,61.133809 271.42964,60.864273 C 271.10542,60.590841 270.64839,60.454123 270.05855,60.454117 C 269.68355,60.454123 269.31831,60.499044 268.96284,60.588882 C 268.60737,60.678732 268.26558,60.813497 267.93745,60.993179 L 267.93745,59.997086 C 268.33198,59.844748 268.7148,59.731467 269.08589,59.657242 C 269.45698,59.579124 269.81831,59.540061 270.16988,59.540054 C 271.11909,59.540061 271.82807,59.786155 272.29683,60.278336 C 272.76557,60.770529 272.99995,61.516622 272.99995,62.516617 M 275.22652,59.698257 L 276.30464,59.698257 L 276.30464,66.260757 L 275.22652,66.260757 L 275.22652,59.698257 M 275.22652,57.14357 L 276.30464,57.14357 L 276.30464,58.508804 L 275.22652,58.508804 L 275.22652,57.14357 M 284.00972,62.29982 L 284.00972,66.260757 L 282.93159,66.260757 L 282.93159,62.334976 C 282.93159,61.713887 282.8105,61.249044 282.56831,60.940445 C 282.32612,60.631857 281.96284,60.47756 281.47847,60.477554 C 280.89644,60.47756 280.43745,60.663107 280.10152,61.034195 C 279.76558,61.405294 279.59761,61.911152 279.59761,62.551773 L 279.59761,66.260757 L 278.51363,66.260757 L 278.51363,59.698257 L 279.59761,59.698257 L 279.59761,60.717789 C 279.85542,60.323263 280.15815,60.028342 280.50581,59.833023 C 280.85737,59.637717 281.26167,59.540061 281.7187,59.540054 C 282.47261,59.540061 283.04292,59.774436 283.42964,60.243179 C 283.81635,60.708029 284.00971,61.393575 284.00972,62.29982 M 291.78511,62.709976 L 291.78511,63.23732 L 286.82808,63.23732 C 286.87495,63.97951 287.09761,64.545915 287.49605,64.936539 C 287.89839,65.323258 288.45698,65.516618 289.17183,65.516617 C 289.58589,65.516618 289.98628,65.465836 290.373,65.364273 C 290.76362,65.262712 291.15034,65.110368 291.53316,64.907242 L 291.53316,65.926773 C 291.14643,66.090836 290.74995,66.215836 290.3437,66.301773 C 289.93745,66.38771 289.52534,66.430679 289.10738,66.430679 C 288.0605,66.430679 287.23042,66.125992 286.61714,65.516617 C 286.00777,64.907243 285.70308,64.083025 285.70308,63.043961 C 285.70308,61.969746 285.99214,61.118184 286.57027,60.489273 C 287.1523,59.856467 287.9355,59.540061 288.91988,59.540054 C 289.80268,59.540061 290.49995,59.825217 291.01167,60.395523 C 291.52729,60.961935 291.7851,61.733418 291.78511,62.709976 M 290.70699,62.39357 C 290.69917,61.803731 290.53315,61.333028 290.20894,60.981461 C 289.88862,60.629904 289.46284,60.454123 288.93159,60.454117 C 288.33003,60.454123 287.84761,60.624044 287.48433,60.963882 C 287.12495,61.303731 286.91792,61.782246 286.86324,62.399429 L 290.70699,62.39357 M 297.35738,60.70607 C 297.23628,60.635763 297.10347,60.584982 296.95894,60.553726 C 296.81831,60.518576 296.66206,60.500998 296.49019,60.500992 C 295.88081,60.500998 295.41206,60.700216 295.08394,61.098648 C 294.75972,61.493184 294.59761,62.061543 294.59761,62.803726 L 294.59761,66.260757 L 293.51363,66.260757 L 293.51363,59.698257 L 294.59761,59.698257 L 294.59761,60.717789 C 294.82417,60.319357 295.11909,60.024436 295.48238,59.833023 C 295.84565,59.637717 296.28706,59.540061 296.80659,59.540054 C 296.88081,59.540061 296.96284,59.54592 297.05269,59.557632 C 297.14253,59.565452 297.24214,59.579124 297.35152,59.598648 L 297.35738,60.70607"
         id="text3197" />
    </g>
    <g
       id="g3225"
       transform="translate(0,-27.518409)">
      <path
         style="fill:#ffffff;fill-rule:evenodd;stroke:#000000;stroke-width:0.68608195px;stroke-linecap:butt;stroke-linejoin:miter;stroke-opacity:1"
         d="M 40.318508,163.83849 L 100.05268,163.83849 L 100.05268,190.67081 L 40.318508,190.67081 L 40.318508,163.83849 z"
         id="rect3201" />
      <path
         style="font-size:40px;font-style:normal;font-weight:normal;line-height:125%;fill:#000000;fill-opacity:1;stroke:none;stroke-width:1px;stroke-linecap:butt;stroke-linejoin:miter;stroke-opacity:1;font-family:Bitstream Vera Sans"
         d="M 52.232502,177.22876 L 52.232502,180.43384 L 54.130939,180.43384 C 54.767653,180.43384 55.238356,180.30298 55.543049,180.04126 C 55.851637,179.77564 56.005933,179.37134 56.005939,178.82837 C 56.005933,178.2815 55.851637,177.87915 55.543049,177.62134 C 55.238356,177.35962 54.767653,177.22876 54.130939,177.22876 L 52.232502,177.22876 M 52.232502,173.6311 L 52.232502,176.26782 L 53.984455,176.26782 C 54.562575,176.26783 54.992262,176.16041 55.273518,175.94556 C 55.558668,175.72681 55.701246,175.39478 55.701252,174.94946 C 55.701246,174.50806 55.558668,174.17799 55.273518,173.95923 C 54.992262,173.74049 54.562575,173.63111 53.984455,173.6311 L 52.232502,173.6311 M 51.048908,172.65845 L 54.072346,172.65845 C 54.974684,172.65846 55.669996,172.84596 56.158283,173.22095 C 56.646558,173.59596 56.890698,174.12916 56.890705,174.82056 C 56.890698,175.35572 56.765698,175.7815 56.515705,176.0979 C 56.265699,176.41431 55.898512,176.61158 55.414143,176.6897 C 55.996168,176.8147 56.447339,177.07642 56.767658,177.47485 C 57.09187,177.86939 57.253979,178.36353 57.253986,178.95728 C 57.253979,179.73853 56.988354,180.34204 56.457111,180.76782 C 55.925855,181.1936 55.169997,181.40649 54.189533,181.40649 L 51.048908,181.40649 L 51.048908,172.65845 M 59.117268,178.81665 L 59.117268,174.84399 L 60.195393,174.84399 L 60.195393,178.77563 C 60.195391,179.39673 60.316484,179.86353 60.558674,180.17603 C 60.800859,180.48462 61.16414,180.63892 61.648518,180.63892 C 62.230545,180.63892 62.689529,180.45337 63.025471,180.08228 C 63.365309,179.71118 63.535231,179.20532 63.535236,178.5647 L 63.535236,174.84399 L 64.613361,174.84399 L 64.613361,181.40649 L 63.535236,181.40649 L 63.535236,180.39868 C 63.273512,180.79712 62.968825,181.09399 62.621174,181.28931 C 62.27742,181.48071 61.877029,181.57642 61.420002,181.57642 C 60.666093,181.57642 60.093828,181.34204 59.703205,180.87329 C 59.312579,180.40454 59.117267,179.719 59.117268,178.81665 M 67.912189,172.98071 L 67.912189,174.84399 L 70.132893,174.84399 L 70.132893,175.68188 L 67.912189,175.68188 L 67.912189,179.24438 C 67.912187,179.77954 67.984453,180.12329 68.128986,180.27563 C 68.277421,180.42798 68.576249,180.50415 69.025471,180.50415 L 70.132893,180.50415 L 70.132893,181.40649 L 69.025471,181.40649 C 68.193437,181.40649 67.619219,181.2522 67.302814,180.9436 C 66.986407,180.6311 66.828204,180.0647 66.828205,179.24438 L 66.828205,175.68188 L 66.037189,175.68188 L 66.037189,174.84399 L 66.828205,174.84399 L 66.828205,172.98071 L 67.912189,172.98071 M 72.623127,172.98071 L 72.623127,174.84399 L 74.84383,174.84399 L 74.84383,175.68188 L 72.623127,175.68188 L 72.623127,179.24438 C 72.623125,179.77954 72.69539,180.12329 72.839924,180.27563 C 72.988359,180.42798 73.287187,180.50415 73.736408,180.50415 L 74.84383,180.50415 L 74.84383,181.40649 L 73.736408,181.40649 C 72.904375,181.40649 72.330156,181.2522 72.013752,180.9436 C 71.697344,180.6311 71.539141,180.0647 71.539143,179.24438 L 71.539143,175.68188 L 70.748127,175.68188 L 70.748127,174.84399 L 71.539143,174.84399 L 71.539143,172.98071 L 72.623127,172.98071 M 78.810627,175.59985 C 78.232499,175.59986 77.775468,175.82642 77.439533,176.27954 C 77.103594,176.72876 76.935625,177.34595 76.935627,178.1311 C 76.935625,178.91626 77.101641,179.5354 77.433674,179.98853 C 77.769609,180.43775 78.228593,180.66235 78.810627,180.66235 C 79.384841,180.66235 79.839919,180.43579 80.175861,179.98267 C 80.511793,179.52954 80.679762,178.91236 80.679768,178.1311 C 80.679762,177.35376 80.511793,176.73853 80.175861,176.2854 C 79.839919,175.82837 79.384841,175.59986 78.810627,175.59985 M 78.810627,174.68579 C 79.748122,174.6858 80.48445,174.99048 81.019611,175.59985 C 81.554761,176.20923 81.822339,177.05298 81.822346,178.1311 C 81.822339,179.20532 81.554761,180.04907 81.019611,180.66235 C 80.48445,181.27173 79.748122,181.57642 78.810627,181.57642 C 77.869218,181.57642 77.130937,181.27173 76.595783,180.66235 C 76.064532,180.04907 75.798908,179.20532 75.798908,178.1311 C 75.798908,177.05298 76.064532,176.20923 76.595783,175.59985 C 77.130937,174.99048 77.869218,174.6858 78.810627,174.68579 M 89.058674,177.44556 L 89.058674,181.40649 L 87.980549,181.40649 L 87.980549,177.48071 C 87.980543,176.85962 87.85945,176.39478 87.617268,176.08618 C 87.375075,175.77759 87.011794,175.6233 86.527424,175.62329 C 85.945389,175.6233 85.486405,175.80884 85.150471,176.17993 C 84.814531,176.55103 84.646562,177.05689 84.646564,177.69751 L 84.646564,181.40649 L 83.56258,181.40649 L 83.56258,174.84399 L 84.646564,174.84399 L 84.646564,175.86353 C 84.904375,175.469 85.207109,175.17408 85.554768,174.97876 C 85.906327,174.78345 86.310623,174.6858 86.767658,174.68579 C 87.521559,174.6858 88.091871,174.92017 88.478596,175.38892 C 88.865308,175.85377 89.058667,176.53931 89.058674,177.44556"
         id="text3203" />
    </g>
    <g
       id="g3235"
       transform="translate(-4.2598937,-27.805232)">
      <rect
         y="164.09897"
         x="119.55199"
         height="26.885008"
         width="50.813232"
         id="rect3207"
         style="fill:#ffffff;fill-rule:evenodd;stroke:#000000;stroke-width:0.63340122px;stroke-linecap:butt;stroke-linejoin:miter;stroke-opacity:1" />
      <path
         style="font-size:40px;font-style:normal;font-weight:normal;line-height:125%;fill:#000000;fill-opacity:1;stroke:none;stroke-width:1px;stroke-linecap:butt;stroke-linejoin:miter;stroke-opacity:1;font-family:Bitstream Vera Sans"
         d="M 130.30873,172.94528 L 131.49232,172.94528 L 131.49232,180.69724 L 135.75209,180.69724 L 135.75209,181.69333 L 130.30873,181.69333 L 130.30873,172.94528 M 139.92397,178.3945 C 139.05287,178.3945 138.44935,178.49411 138.11342,178.69333 C 137.77748,178.89255 137.60951,179.23239 137.60951,179.71286 C 137.60951,180.09567 137.73451,180.40036 137.98451,180.62692 C 138.23842,180.84958 138.58217,180.96091 139.01576,180.96091 C 139.61341,180.96091 140.09193,180.74997 140.45131,180.32809 C 140.81459,179.90232 140.99623,179.33786 140.99623,178.63474 L 140.99623,178.3945 L 139.92397,178.3945 M 142.07436,177.94919 L 142.07436,181.69333 L 140.99623,181.69333 L 140.99623,180.69724 C 140.75013,181.09567 140.44349,181.39059 140.07631,181.582 C 139.70912,181.7695 139.2599,181.86325 138.72865,181.86325 C 138.05678,181.86325 137.52162,181.67575 137.12318,181.30075 C 136.72865,180.92185 136.53139,180.41599 136.53139,179.78317 C 136.53139,179.04489 136.77748,178.48825 137.26967,178.11325 C 137.76576,177.73825 138.50404,177.55075 139.48451,177.55075 L 140.99623,177.55075 L 140.99623,177.44528 C 140.99623,176.94919 140.83216,176.56638 140.50404,176.29684 C 140.17982,176.02341 139.72279,175.88669 139.13295,175.88669 C 138.75795,175.88669 138.39271,175.93162 138.03725,176.02145 C 137.68178,176.1113 137.33998,176.24607 137.01186,176.42575 L 137.01186,175.42966 C 137.40639,175.27732 137.7892,175.16404 138.16029,175.08981 C 138.53138,175.01169 138.89271,174.97263 139.24428,174.97263 C 140.19349,174.97263 140.90248,175.21873 141.37123,175.71091 C 141.83998,176.2031 142.07435,176.94919 142.07436,177.94919 M 149.01186,178.41794 C 149.01185,177.62497 148.84779,177.00388 148.51967,176.55466 C 148.19544,176.10154 147.74818,175.87498 147.17787,175.87497 C 146.60756,175.87498 146.15834,176.10154 145.83022,176.55466 C 145.50599,177.00388 145.34389,177.62497 145.34389,178.41794 C 145.34389,179.21091 145.50599,179.83396 145.83022,180.28708 C 146.15834,180.7363 146.60756,180.96091 147.17787,180.96091 C 147.74818,180.96091 148.19544,180.7363 148.51967,180.28708 C 148.84779,179.83396 149.01185,179.21091 149.01186,178.41794 M 145.34389,176.12692 C 145.57045,175.7363 145.8556,175.44724 146.19936,175.25974 C 146.54701,175.06834 146.96107,174.97263 147.44154,174.97263 C 148.23841,174.97263 148.8849,175.28904 149.381,175.92184 C 149.88099,176.55466 150.13099,177.38669 150.131,178.41794 C 150.13099,179.44919 149.88099,180.28122 149.381,180.91403 C 148.8849,181.54684 148.23841,181.86325 147.44154,181.86325 C 146.96107,181.86325 146.54701,181.7695 146.19936,181.582 C 145.8556,181.39059 145.57045,181.09958 145.34389,180.70895 L 145.34389,181.69333 L 144.2599,181.69333 L 144.2599,172.57614 L 145.34389,172.57614 L 145.34389,176.12692 M 157.53139,178.14255 L 157.53139,178.66989 L 152.57436,178.66989 C 152.62123,179.41208 152.84389,179.97849 153.24232,180.36911 C 153.64467,180.75583 154.20326,180.94919 154.91811,180.94919 C 155.33216,180.94919 155.73255,180.89841 156.11928,180.79684 C 156.5099,180.69528 156.89662,180.54294 157.27943,180.33981 L 157.27943,181.35934 C 156.89271,181.52341 156.49623,181.64841 156.08998,181.73434 C 155.68373,181.82028 155.27162,181.86325 154.85365,181.86325 C 153.80677,181.86325 152.9767,181.55856 152.36342,180.94919 C 151.75404,180.33981 151.44936,179.5156 151.44936,178.47653 C 151.44936,177.40232 151.73842,176.55076 152.31654,175.92184 C 152.89857,175.28904 153.68178,174.97263 154.66615,174.97263 C 155.54896,174.97263 156.24623,175.25779 156.75795,175.82809 C 157.27357,176.39451 157.53138,177.16599 157.53139,178.14255 M 156.45326,177.82614 C 156.44544,177.2363 156.27943,176.7656 155.95522,176.41403 C 155.6349,176.06248 155.20912,175.88669 154.67787,175.88669 C 154.07631,175.88669 153.59388,176.05662 153.23061,176.39645 C 152.87123,176.7363 152.6642,177.21482 152.60951,177.832 L 156.45326,177.82614 M 159.30092,172.57614 L 160.37904,172.57614 L 160.37904,181.69333 L 159.30092,181.69333 L 159.30092,172.57614"
         id="text3209" />
    </g>
    <g
       id="g3240"
       transform="translate(-74.032363,69.496005)">
      <rect
         y="66.946693"
         x="352.93369"
         height="26.587082"
         width="111.08723"
         id="rect3213"
         style="fill:#ffffff;fill-rule:evenodd;stroke:#000000;stroke-width:0.9313283px;stroke-linecap:butt;stroke-linejoin:miter;stroke-opacity:1" />
      <path
         style="font-size:40px;font-style:normal;font-weight:normal;line-height:125%;fill:#000000;fill-opacity:1;stroke:none;stroke-width:1px;stroke-linecap:butt;stroke-linejoin:miter;stroke-opacity:1;font-family:Bitstream Vera Sans"
         d="M 368.78558,75.931145 L 368.78558,77.085442 C 368.33636,76.870605 367.91253,76.710449 367.5141,76.604973 C 367.11566,76.499512 366.73089,76.446778 366.3598,76.44677 C 365.71527,76.446778 365.21722,76.571778 364.86566,76.82177 C 364.518,77.071777 364.34418,77.427245 364.34418,77.888176 C 364.34418,78.274901 364.45941,78.567869 364.68988,78.767082 C 364.92425,78.9624 365.36566,79.120603 366.0141,79.241692 L 366.72894,79.388176 C 367.61175,79.55615 368.26214,79.853024 368.68011,80.278801 C 369.10198,80.70068 369.31292,81.267085 369.31293,81.97802 C 369.31292,82.825678 369.02776,83.468255 368.45746,83.905754 C 367.89105,84.343254 367.05902,84.562004 365.96136,84.562004 C 365.5473,84.562004 365.10589,84.515129 364.63715,84.421379 C 364.1723,84.327629 363.68988,84.188957 363.18988,84.005363 L 363.18988,82.786613 C 363.67035,83.056146 364.14105,83.259271 364.60199,83.395988 C 365.06292,83.532708 365.51605,83.601067 365.96136,83.601067 C 366.63714,83.601067 367.15863,83.468255 367.52582,83.202629 C 367.893,82.937006 368.07659,82.5581 368.0766,82.06591 C 368.07659,81.636226 367.94378,81.300288 367.67816,81.058098 C 367.41644,80.815914 366.9848,80.634273 366.38324,80.513176 L 365.66254,80.372551 C 364.77972,80.196774 364.14105,79.921384 363.74652,79.546379 C 363.35199,79.171384 363.15472,78.6499 363.15472,77.981926 C 363.15472,77.208496 363.42621,76.599121 363.96918,76.153801 C 364.51605,75.708497 365.268,75.485841 366.22504,75.485832 C 366.63519,75.485841 367.05316,75.52295 367.47894,75.59716 C 367.90472,75.671388 368.34027,75.782716 368.78558,75.931145 M 375.83441,78.081535 L 375.83441,79.089348 C 375.52972,78.921385 375.22308,78.796385 374.91449,78.714348 C 374.6098,78.628416 374.3012,78.585447 373.98871,78.585442 C 373.28949,78.585447 372.74652,78.808103 372.3598,79.25341 C 371.97308,79.694821 371.77972,80.315914 371.77972,81.116692 C 371.77972,81.917475 371.97308,82.540522 372.3598,82.985832 C 372.74652,83.427239 373.28949,83.647942 373.98871,83.647942 C 374.3012,83.647942 374.6098,83.606927 374.91449,83.524895 C 375.22308,83.438958 375.52972,83.312005 375.83441,83.144035 L 375.83441,84.140129 C 375.53362,84.280754 375.22113,84.386223 374.89691,84.456535 C 374.57659,84.526848 374.2348,84.562004 373.87152,84.562004 C 372.88324,84.562004 372.09808,84.251457 371.51605,83.630363 C 370.93402,83.009271 370.643,82.171381 370.64301,81.116692 C 370.643,80.046383 370.93597,79.204587 371.52191,78.591301 C 372.11175,77.978026 372.91839,77.671386 373.94183,77.671379 C 374.27386,77.671386 374.59808,77.706542 374.91449,77.776848 C 375.23089,77.843261 375.53753,77.944823 375.83441,78.081535 M 381.52386,78.837395 C 381.40277,78.767088 381.26995,78.716307 381.12543,78.685051 C 380.9848,78.6499 380.82855,78.632322 380.65668,78.632317 C 380.0473,78.632322 379.57855,78.831541 379.25043,79.229973 C 378.92621,79.624509 378.7641,80.192868 378.7641,80.935051 L 378.7641,84.392082 L 377.68011,84.392082 L 377.68011,77.829582 L 378.7641,77.829582 L 378.7641,78.849113 C 378.99066,78.450682 379.28558,78.15576 379.64886,77.964348 C 380.01214,77.769042 380.45355,77.671386 380.97308,77.671379 C 381.0473,77.671386 381.12933,77.677245 381.21918,77.688957 C 381.30902,77.696776 381.40863,77.710448 381.51801,77.729973 L 381.52386,78.837395 M 384.9516,78.585442 C 384.37347,78.585447 383.91644,78.81201 383.58051,79.265129 C 383.24457,79.714353 383.0766,80.331539 383.0766,81.116692 C 383.0766,81.90185 383.24261,82.52099 383.57465,82.974113 C 383.91058,83.423333 384.36956,83.647942 384.9516,83.647942 C 385.52581,83.647942 385.98089,83.42138 386.31683,82.968254 C 386.65277,82.515131 386.82073,81.897944 386.82074,81.116692 C 386.82073,80.339352 386.65277,79.724118 386.31683,79.270988 C 385.98089,78.813963 385.52581,78.585447 384.9516,78.585442 M 384.9516,77.671379 C 385.88909,77.671386 386.62542,77.976073 387.16058,78.585442 C 387.69573,79.194822 387.96331,80.038571 387.96332,81.116692 C 387.96331,82.190913 387.69573,83.034662 387.16058,83.647942 C 386.62542,84.257317 385.88909,84.562004 384.9516,84.562004 C 384.01019,84.562004 383.27191,84.257317 382.73676,83.647942 C 382.2055,83.034662 381.93988,82.190913 381.93988,81.116692 C 381.93988,80.038571 382.2055,79.194822 382.73676,78.585442 C 383.27191,77.976073 384.01019,77.671386 384.9516,77.671379 M 389.74457,75.274895 L 390.82269,75.274895 L 390.82269,84.392082 L 389.74457,84.392082 L 389.74457,75.274895 M 393.07269,75.274895 L 394.15082,75.274895 L 394.15082,84.392082 L 393.07269,84.392082 L 393.07269,75.274895 M 402.99847,76.317863 L 402.99847,77.56591 C 402.60003,77.194824 402.17425,76.91748 401.72113,76.733879 C 401.27191,76.550293 400.79339,76.458496 400.28558,76.458488 C 399.28558,76.458496 398.51996,76.765137 397.98871,77.37841 C 397.45746,77.987792 397.19183,78.870603 397.19183,80.026848 C 397.19183,81.179195 397.45746,82.062006 397.98871,82.675285 C 398.51996,83.284661 399.28558,83.589349 400.28558,83.589348 C 400.79339,83.589349 401.27191,83.497552 401.72113,83.313957 C 402.17425,83.130365 402.60003,82.853021 402.99847,82.481926 L 402.99847,83.718254 C 402.5844,83.999504 402.14495,84.210442 401.68011,84.351067 C 401.21917,84.491691 400.73089,84.562004 400.21527,84.562004 C 398.89105,84.562004 397.84808,84.157707 397.08636,83.349113 C 396.32464,82.536615 395.94379,81.429195 395.94379,80.026848 C 395.94379,78.620604 396.32464,77.513183 397.08636,76.704582 C 397.84808,75.892091 398.89105,75.485841 400.21527,75.485832 C 400.7387,75.485841 401.23089,75.556154 401.69183,75.69677 C 402.15667,75.833497 402.59222,76.040528 402.99847,76.317863 M 407.33441,78.585442 C 406.75628,78.585447 406.29925,78.81201 405.96332,79.265129 C 405.62738,79.714353 405.45941,80.331539 405.45941,81.116692 C 405.45941,81.90185 405.62543,82.52099 405.95746,82.974113 C 406.29339,83.423333 406.75238,83.647942 407.33441,83.647942 C 407.90863,83.647942 408.3637,83.42138 408.69965,82.968254 C 409.03558,82.515131 409.20355,81.897944 409.20355,81.116692 C 409.20355,80.339352 409.03558,79.724118 408.69965,79.270988 C 408.3637,78.813963 407.90863,78.585447 407.33441,78.585442 M 407.33441,77.671379 C 408.27191,77.671386 409.00823,77.976073 409.5434,78.585442 C 410.07855,79.194822 410.34612,80.038571 410.34613,81.116692 C 410.34612,82.190913 410.07855,83.034662 409.5434,83.647942 C 409.00823,84.257317 408.27191,84.562004 407.33441,84.562004 C 406.393,84.562004 405.65472,84.257317 405.11957,83.647942 C 404.58832,83.034662 404.32269,82.190913 404.32269,81.116692 C 404.32269,80.038571 404.58832,79.194822 405.11957,78.585442 C 405.65472,77.976073 406.393,77.671386 407.33441,77.671379 M 417.58246,80.431145 L 417.58246,84.392082 L 416.50433,84.392082 L 416.50433,80.466301 C 416.50433,79.845212 416.38323,79.380368 416.14105,79.07177 C 415.89886,78.763182 415.53558,78.608885 415.05121,78.608879 C 414.46917,78.608885 414.01019,78.794432 413.67426,79.16552 C 413.33832,79.536618 413.17035,80.042477 413.17035,80.683098 L 413.17035,84.392082 L 412.08636,84.392082 L 412.08636,77.829582 L 413.17035,77.829582 L 413.17035,78.849113 C 413.42816,78.454588 413.73089,78.159667 414.07855,77.964348 C 414.43011,77.769042 414.83441,77.671386 415.29144,77.671379 C 416.04534,77.671386 416.61566,77.905761 417.00238,78.374504 C 417.38909,78.839353 417.58245,79.5249 417.58246,80.431145 M 420.81097,75.966301 L 420.81097,77.829582 L 423.03168,77.829582 L 423.03168,78.667473 L 420.81097,78.667473 L 420.81097,82.229973 C 420.81097,82.765131 420.88324,83.10888 421.02777,83.261223 C 421.17621,83.413568 421.47503,83.489739 421.92426,83.489738 L 423.03168,83.489738 L 423.03168,84.392082 L 421.92426,84.392082 C 421.09222,84.392082 420.518,84.237785 420.2016,83.929192 C 419.88519,83.616692 419.72699,83.050287 419.72699,82.229973 L 419.72699,78.667473 L 418.93597,78.667473 L 418.93597,77.829582 L 419.72699,77.829582 L 419.72699,75.966301 L 420.81097,75.966301 M 427.43793,81.093254 C 426.56683,81.093257 425.96332,81.192867 425.62738,81.392082 C 425.29144,81.591304 425.12347,81.931147 425.12347,82.411613 C 425.12347,82.794428 425.24847,83.099115 425.49847,83.325676 C 425.75238,83.548333 426.09613,83.659661 426.52972,83.65966 C 427.12738,83.659661 427.60589,83.448724 427.96527,83.026848 C 428.32855,82.601068 428.51019,82.036616 428.51019,81.333488 L 428.51019,81.093254 L 427.43793,81.093254 M 429.58832,80.647942 L 429.58832,84.392082 L 428.51019,84.392082 L 428.51019,83.395988 C 428.26409,83.794427 427.95745,84.089348 427.59027,84.280754 C 427.22308,84.468254 426.77386,84.562004 426.24261,84.562004 C 425.57074,84.562004 425.03558,84.374504 424.63715,83.999504 C 424.24261,83.620599 424.04535,83.11474 424.04535,82.481926 C 424.04535,81.743647 424.29144,81.187007 424.78363,80.812004 C 425.27972,80.437008 426.018,80.249508 426.99847,80.249504 L 428.51019,80.249504 L 428.51019,80.144035 C 428.51019,79.647946 428.34613,79.265134 428.01801,78.995598 C 427.69378,78.722166 427.23675,78.585447 426.64691,78.585442 C 426.27191,78.585447 425.90667,78.630369 425.55121,78.720207 C 425.19574,78.810057 424.85394,78.944822 424.52582,79.124504 L 424.52582,78.12841 C 424.92035,77.976073 425.30316,77.862792 425.67426,77.788567 C 426.04535,77.710448 426.40667,77.671386 426.75824,77.671379 C 427.70745,77.671386 428.41644,77.917479 428.88519,78.40966 C 429.35394,78.901853 429.58831,79.647946 429.58832,80.647942 M 431.81488,77.829582 L 432.89301,77.829582 L 432.89301,84.392082 L 431.81488,84.392082 L 431.81488,77.829582 M 431.81488,75.274895 L 432.89301,75.274895 L 432.89301,76.640129 L 431.81488,76.640129 L 431.81488,75.274895 M 440.59808,80.431145 L 440.59808,84.392082 L 439.51996,84.392082 L 439.51996,80.466301 C 439.51995,79.845212 439.39886,79.380368 439.15668,79.07177 C 438.91448,78.763182 438.5512,78.608885 438.06683,78.608879 C 437.4848,78.608885 437.02581,78.794432 436.68988,79.16552 C 436.35394,79.536618 436.18597,80.042477 436.18597,80.683098 L 436.18597,84.392082 L 435.10199,84.392082 L 435.10199,77.829582 L 436.18597,77.829582 L 436.18597,78.849113 C 436.44378,78.454588 436.74652,78.159667 437.09418,77.964348 C 437.44574,77.769042 437.85003,77.671386 438.30707,77.671379 C 439.06097,77.671386 439.63128,77.905761 440.01801,78.374504 C 440.40472,78.839353 440.59808,79.5249 440.59808,80.431145 M 448.37347,80.841301 L 448.37347,81.368645 L 443.41644,81.368645 C 443.46332,82.110834 443.68597,82.67724 444.08441,83.067863 C 444.48675,83.454583 445.04535,83.647942 445.76019,83.647942 C 446.17425,83.647942 446.57464,83.597161 446.96136,83.495598 C 447.35198,83.394036 447.7387,83.241693 448.12152,83.038567 L 448.12152,84.058098 C 447.7348,84.222161 447.33831,84.34716 446.93207,84.433098 C 446.52581,84.519035 446.1137,84.562004 445.69574,84.562004 C 444.64886,84.562004 443.81878,84.257317 443.20551,83.647942 C 442.59613,83.038568 442.29144,82.21435 442.29144,81.175285 C 442.29144,80.101071 442.5805,79.249509 443.15863,78.620598 C 443.74066,77.987792 444.52386,77.671386 445.50824,77.671379 C 446.39105,77.671386 447.08831,77.956542 447.60004,78.526848 C 448.11566,79.093259 448.37347,79.864743 448.37347,80.841301 M 447.29535,80.524895 C 447.28753,79.935055 447.12152,79.464353 446.7973,79.112785 C 446.47698,78.761228 446.0512,78.585447 445.51996,78.585442 C 444.91839,78.585447 444.43597,78.755369 444.07269,79.095207 C 443.71332,79.435056 443.50628,79.913571 443.4516,80.530754 L 447.29535,80.524895 M 453.94574,78.837395 C 453.82464,78.767088 453.69183,78.716307 453.5473,78.685051 C 453.40667,78.6499 453.25042,78.632322 453.07855,78.632317 C 452.46917,78.632322 452.00042,78.831541 451.6723,79.229973 C 451.34808,79.624509 451.18597,80.192868 451.18597,80.935051 L 451.18597,84.392082 L 450.10199,84.392082 L 450.10199,77.829582 L 451.18597,77.829582 L 451.18597,78.849113 C 451.41253,78.450682 451.70746,78.15576 452.07074,77.964348 C 452.43402,77.769042 452.87542,77.671386 453.39496,77.671379 C 453.46917,77.671386 453.5512,77.677245 453.64105,77.688957 C 453.73089,77.696776 453.8305,77.710448 453.93988,77.729973 L 453.94574,78.837395"
         id="text3215" />
    </g>
    <g
       id="g3251"
       transform="translate(-280.47692,-24.726982)">
      <rect
         y="161.10519"
         x="461.87979"
         height="26.716055"
         width="82.051941"
         id="rect3219"
         style="fill:#ffffff;fill-rule:evenodd;stroke:#000000;stroke-width:0.80235398px;stroke-linecap:butt;stroke-linejoin:miter;stroke-opacity:1" />
      <path
         style="font-size:40px;font-style:normal;font-weight:normal;line-height:125%;fill:#000000;fill-opacity:1;stroke:none;stroke-width:1px;stroke-linecap:butt;stroke-linejoin:miter;stroke-opacity:1;font-family:Bitstream Vera Sans"
         d="M 479.10284,170.54086 L 479.10284,171.78891 C 478.7044,171.41782 478.27862,171.14048 477.8255,170.95688 C 477.37628,170.77329 476.89776,170.6815 476.38995,170.68149 C 475.38995,170.6815 474.62433,170.98814 474.09308,171.60141 C 473.56183,172.21079 473.2962,173.0936 473.2962,174.24985 C 473.2962,175.40219 473.56183,176.28501 474.09308,176.89828 C 474.62433,177.50766 475.38995,177.81235 476.38995,177.81235 C 476.89776,177.81235 477.37628,177.72055 477.8255,177.53696 C 478.27862,177.35336 478.7044,177.07602 479.10284,176.70493 L 479.10284,177.94125 C 478.68877,178.2225 478.24932,178.43344 477.78448,178.57407 C 477.32354,178.71469 476.83526,178.785 476.31964,178.785 C 474.99542,178.785 473.95245,178.38071 473.19073,177.57211 C 472.42902,176.75961 472.04816,175.65219 472.04816,174.24985 C 472.04816,172.8436 472.42902,171.73618 473.19073,170.92758 C 473.95245,170.11509 474.99542,169.70884 476.31964,169.70883 C 476.84307,169.70884 477.33526,169.77915 477.7962,169.91977 C 478.26104,170.0565 478.69659,170.26353 479.10284,170.54086 M 486.35089,174.65414 L 486.35089,178.61508 L 485.27277,178.61508 L 485.27277,174.6893 C 485.27276,174.06821 485.15167,173.60337 484.90948,173.29477 C 484.66729,172.98618 484.30401,172.83188 483.81964,172.83188 C 483.23761,172.83188 482.77862,173.01743 482.44269,173.38852 C 482.10675,173.75962 481.93878,174.26548 481.93878,174.9061 L 481.93878,178.61508 L 480.8548,178.61508 L 480.8548,169.49789 L 481.93878,169.49789 L 481.93878,173.07211 C 482.19659,172.67759 482.49933,172.38267 482.84698,172.18735 C 483.19854,171.99204 483.60284,171.89439 484.05988,171.89438 C 484.81378,171.89439 485.38409,172.12876 485.77081,172.5975 C 486.15753,173.06235 486.35088,173.7479 486.35089,174.65414 M 494.12628,175.0643 L 494.12628,175.59164 L 489.16925,175.59164 C 489.21612,176.33383 489.43878,176.90024 489.83722,177.29086 C 490.23956,177.67758 490.79815,177.87094 491.513,177.87094 C 491.92706,177.87094 492.32745,177.82016 492.71417,177.7186 C 493.10479,177.61704 493.49151,177.46469 493.87433,177.26157 L 493.87433,178.2811 C 493.4876,178.44516 493.09112,178.57016 492.68488,178.6561 C 492.27862,178.74203 491.86651,178.785 491.44855,178.785 C 490.40167,178.785 489.57159,178.48032 488.95831,177.87094 C 488.34894,177.26157 488.04425,176.43735 488.04425,175.39828 C 488.04425,174.32407 488.33331,173.47251 488.91144,172.8436 C 489.49347,172.21079 490.27667,171.89439 491.26105,171.89438 C 492.14386,171.89439 492.84112,172.17954 493.35284,172.74985 C 493.86846,173.31626 494.12627,174.08774 494.12628,175.0643 M 493.04816,174.74789 C 493.04034,174.15805 492.87432,173.68735 492.55011,173.33578 C 492.22979,172.98423 491.80401,172.80845 491.27277,172.80844 C 490.6712,172.80845 490.18878,172.97837 489.8255,173.31821 C 489.46612,173.65806 489.25909,174.13657 489.20441,174.75375 L 493.04816,174.74789 M 500.61847,172.30453 L 500.61847,173.31235 C 500.31378,173.14438 500.00714,173.01938 499.69855,172.93735 C 499.39386,172.85142 499.08526,172.80845 498.77277,172.80844 C 498.07354,172.80845 497.53058,173.0311 497.14386,173.47641 C 496.75714,173.91782 496.56378,174.53891 496.56378,175.33969 C 496.56378,176.14047 496.75714,176.76352 497.14386,177.20883 C 497.53058,177.65024 498.07354,177.87094 498.77277,177.87094 C 499.08526,177.87094 499.39386,177.82993 499.69855,177.74789 C 500.00714,177.66196 500.31378,177.535 500.61847,177.36703 L 500.61847,178.36313 C 500.31768,178.50375 500.00518,178.60922 499.68097,178.67953 C 499.36065,178.74985 499.01886,178.785 498.65558,178.785 C 497.66729,178.785 496.88214,178.47446 496.30011,177.85336 C 495.71808,177.23227 495.42706,176.39438 495.42706,175.33969 C 495.42706,174.26938 495.72003,173.42759 496.30597,172.8143 C 496.89581,172.20103 497.70245,171.89439 498.72589,171.89438 C 499.05792,171.89439 499.38214,171.92954 499.69855,171.99985 C 500.01495,172.06626 500.32159,172.16782 500.61847,172.30453 M 502.46417,169.49789 L 503.54816,169.49789 L 503.54816,174.88266 L 506.76495,172.05258 L 508.14191,172.05258 L 504.66144,175.12289 L 508.28839,178.61508 L 506.88214,178.61508 L 503.54816,175.41 L 503.54816,178.61508 L 502.46417,178.61508 L 502.46417,169.49789 M 510.69659,174.43735 L 510.69659,177.64243 L 512.59503,177.64243 C 513.23175,177.64243 513.70245,177.51157 514.00714,177.24985 C 514.31573,176.98422 514.47003,176.57993 514.47003,176.03696 C 514.47003,175.49008 514.31573,175.08774 514.00714,174.82993 C 513.70245,174.56821 513.23175,174.43735 512.59503,174.43735 L 510.69659,174.43735 M 510.69659,170.83969 L 510.69659,173.47641 L 512.44855,173.47641 C 513.02667,173.47642 513.45635,173.36899 513.73761,173.15414 C 514.02276,172.9354 514.16534,172.60337 514.16534,172.15805 C 514.16534,171.71665 514.02276,171.38657 513.73761,171.16782 C 513.45635,170.94907 513.02667,170.8397 512.44855,170.83969 L 510.69659,170.83969 M 509.513,169.86703 L 512.53644,169.86703 C 513.43878,169.86704 514.13409,170.05454 514.62238,170.42953 C 515.11065,170.80454 515.35479,171.33775 515.3548,172.02914 C 515.35479,172.56431 515.22979,172.99009 514.9798,173.30649 C 514.72979,173.6229 514.3626,173.82016 513.87823,173.89828 C 514.46026,174.02329 514.91143,174.28501 515.23175,174.68344 C 515.55596,175.07798 515.71807,175.57212 515.71808,176.16586 C 515.71807,176.94711 515.45245,177.55063 514.9212,177.97641 C 514.38995,178.40219 513.63409,178.61508 512.65363,178.61508 L 509.513,178.61508 L 509.513,169.86703 M 520.23566,172.80844 C 519.65753,172.80845 519.2005,173.03501 518.86456,173.48813 C 518.52862,173.93735 518.36065,174.55454 518.36066,175.33969 C 518.36065,176.12485 518.52667,176.74399 518.8587,177.19711 C 519.19464,177.64633 519.65362,177.87094 520.23566,177.87094 C 520.80987,177.87094 521.26495,177.64438 521.60089,177.19125 C 521.93682,176.73813 522.10479,176.12094 522.1048,175.33969 C 522.10479,174.56235 521.93682,173.94712 521.60089,173.49399 C 521.26495,173.03696 520.80987,172.80845 520.23566,172.80844 M 520.23566,171.89438 C 521.17315,171.89439 521.90948,172.19907 522.44464,172.80844 C 522.97979,173.41782 523.24737,174.26157 523.24738,175.33969 C 523.24737,176.41391 522.97979,177.25766 522.44464,177.87094 C 521.90948,178.48032 521.17315,178.785 520.23566,178.785 C 519.29425,178.785 518.55597,178.48032 518.02081,177.87094 C 517.48956,177.25766 517.22394,176.41391 517.22394,175.33969 C 517.22394,174.26157 517.48956,173.41782 518.02081,172.80844 C 518.55597,172.19907 519.29425,171.89439 520.23566,171.89438 M 530.1087,172.05258 L 527.73566,175.24594 L 530.23175,178.61508 L 528.96027,178.61508 L 527.05011,176.03696 L 525.13995,178.61508 L 523.86847,178.61508 L 526.4173,175.18149 L 524.08527,172.05258 L 525.35675,172.05258 L 527.09698,174.39047 L 528.83722,172.05258 L 530.1087,172.05258"
         id="text3221" />
    </g>
    <g
       id="g3256"
       transform="translate(7.9311083,2.2434044)">
      <rect
         y="17.081572"
         x="32.393665"
         height="26.819796"
         width="61.965042"
         id="rect3245"
         style="fill:#ffffff;fill-rule:evenodd;stroke:#000000;stroke-width:0.69861281px;stroke-linecap:butt;stroke-linejoin:miter;stroke-opacity:1" />
      <path
         style="font-size:40px;font-style:normal;font-weight:normal;line-height:125%;fill:#000000;fill-opacity:1;stroke:none;stroke-width:1px;stroke-linecap:butt;stroke-linejoin:miter;stroke-opacity:1;font-family:Bitstream Vera Sans"
         d="M 43.117809,25.895283 L 44.301403,25.895283 L 44.301403,33.647236 L 48.561169,33.647236 L 48.561169,34.64333 L 43.117809,34.64333 L 43.117809,25.895283 M 52.733044,31.344501 C 51.861947,31.344505 51.258432,31.444114 50.922497,31.64333 C 50.586557,31.842551 50.418589,32.182395 50.418591,32.662861 C 50.418589,33.045675 50.543589,33.350362 50.793591,33.576923 C 51.047494,33.79958 51.391244,33.910908 51.824841,33.910908 C 52.422493,33.910908 52.901008,33.699971 53.260387,33.278095 C 53.623664,32.852316 53.805304,32.287863 53.805309,31.584736 L 53.805309,31.344501 L 52.733044,31.344501 M 54.883434,30.899189 L 54.883434,34.64333 L 53.805309,34.64333 L 53.805309,33.647236 C 53.559211,34.045674 53.25257,34.340596 52.885387,34.532001 C 52.518196,34.719501 52.068978,34.813251 51.537731,34.813251 C 50.865854,34.813251 50.330698,34.625752 49.932262,34.250751 C 49.53773,33.871846 49.340465,33.365987 49.340466,32.733173 C 49.340465,31.994895 49.586558,31.438255 50.078747,31.063251 C 50.574839,30.688255 51.313119,30.500756 52.293591,30.500751 L 53.805309,30.500751 L 53.805309,30.395283 C 53.805304,29.899194 53.641242,29.516382 53.313122,29.246845 C 52.988899,28.973413 52.531868,28.836695 51.942028,28.836689 C 51.567025,28.836695 51.201791,28.881617 50.846325,28.971455 C 50.490854,29.061304 50.149058,29.196069 49.820934,29.375751 L 49.820934,28.379658 C 50.215464,28.22732 50.598276,28.114039 50.969372,28.039814 C 51.340463,27.961696 51.701791,27.922633 52.053356,27.922626 C 53.002571,27.922633 53.711554,28.168727 54.180309,28.660908 C 54.649053,29.153101 54.883428,29.899194 54.883434,30.899189 M 59.840466,35.252705 C 59.535774,36.033953 59.2389,36.543718 58.949841,36.782001 C 58.660775,37.02028 58.274057,37.139421 57.789684,37.139423 L 56.928356,37.139423 L 56.928356,36.23708 L 57.561169,36.23708 C 57.858042,36.237078 58.08851,36.166766 58.252575,36.026142 C 58.416635,35.885516 58.598275,35.553485 58.797497,35.030048 L 58.990856,34.537861 L 56.336559,28.08083 L 57.479137,28.08083 L 59.529919,33.213642 L 61.5807,28.08083 L 62.723278,28.08083 L 59.840466,35.252705 M 66.754528,28.836689 C 66.1764,28.836695 65.719369,29.063257 65.383434,29.516376 C 65.047495,29.9656 64.879526,30.582787 64.879528,31.367939 C 64.879526,32.153098 65.045542,32.772238 65.377575,33.225361 C 65.71351,33.674581 66.172494,33.89919 66.754528,33.899189 C 67.328743,33.89919 67.78382,33.672627 68.119762,33.219501 C 68.455695,32.766378 68.623663,32.149191 68.623669,31.367939 C 68.623663,30.590599 68.455695,29.975366 68.119762,29.522236 C 67.78382,29.06521 67.328743,28.836695 66.754528,28.836689 M 66.754528,27.922626 C 67.692023,27.922633 68.428351,28.22732 68.963512,28.836689 C 69.498662,29.446069 69.76624,30.289818 69.766247,31.367939 C 69.76624,32.44216 69.498662,33.285909 68.963512,33.899189 C 68.428351,34.508564 67.692023,34.813251 66.754528,34.813251 C 65.813119,34.813251 65.074839,34.508564 64.539684,33.899189 C 64.008433,33.285909 63.742809,32.44216 63.742809,31.367939 C 63.742809,30.289818 64.008433,29.446069 64.539684,28.836689 C 65.074839,28.22732 65.813119,27.922633 66.754528,27.922626 M 71.436169,32.053486 L 71.436169,28.08083 L 72.514294,28.08083 L 72.514294,32.01247 C 72.514292,32.633566 72.635385,33.100362 72.877575,33.412861 C 73.11976,33.721456 73.483041,33.875752 73.967419,33.875751 C 74.549446,33.875752 75.00843,33.690206 75.344372,33.319111 C 75.68421,32.948019 75.854132,32.44216 75.854137,31.801533 L 75.854137,28.08083 L 76.932262,28.08083 L 76.932262,34.64333 L 75.854137,34.64333 L 75.854137,33.635517 C 75.592413,34.033955 75.287726,34.33083 74.940075,34.526142 C 74.596321,34.717548 74.195931,34.813251 73.738903,34.813251 C 72.984994,34.813251 72.412729,34.578877 72.022106,34.110126 C 71.63148,33.641377 71.436168,32.955831 71.436169,32.053486 M 80.231091,26.217548 L 80.231091,28.08083 L 82.451794,28.08083 L 82.451794,28.91872 L 80.231091,28.91872 L 80.231091,32.48122 C 80.231088,33.016378 80.303354,33.360128 80.447887,33.51247 C 80.596322,33.664815 80.89515,33.740987 81.344372,33.740986 L 82.451794,33.740986 L 82.451794,34.64333 L 81.344372,34.64333 C 80.512338,34.64333 79.93812,34.489033 79.621716,34.180439 C 79.305308,33.86794 79.147105,33.301534 79.147106,32.48122 L 79.147106,28.91872 L 78.356091,28.91872 L 78.356091,28.08083 L 79.147106,28.08083 L 79.147106,26.217548 L 80.231091,26.217548"
         id="text3247" />
    </g>
    <path
       style="fill:none;fill-rule:evenodd;stroke:#000000;stroke-width:1;stroke-linecap:butt;stroke-linejoin:miter;marker-start:url(#EmptyTriangleInL);stroke-miterlimit:4;stroke-dasharray:none;stroke-opacity:1"
       d="M 215.92768,50.121251 L 215.92768,132.56636"
       id="path3261" />
    <path
       style="fill:none;fill-rule:evenodd;stroke:#000000;stroke-width:1;stroke-linecap:butt;stroke-linejoin:miter;stroke-opacity:1;stroke-miterlimit:4;stroke-dasharray:none"
       d="M 70.106389,132.56636 L 70.106389,94.98934 L 335.38896,94.98934 L 335.38896,132.56636"
       id="path3263" />
    <path
       style="fill:none;fill-rule:evenodd;stroke:#000000;stroke-width:1;stroke-linecap:butt;stroke-linejoin:miter;stroke-opacity:1;stroke-miterlimit:4;stroke-dasharray:none"
       d="M 139.65193,94.98934 L 139.65193,132.00551"
       id="path3265" />
    <path
       style="fill:none;fill-rule:evenodd;stroke:#000000;stroke-width:1;stroke-linecap:butt;stroke-linejoin:miter;stroke-miterlimit:4;stroke-dasharray:1, 1;stroke-dashoffset:0;stroke-opacity:1"
       d="M 105.44001,32.174016 L 149.74725,32.174016"
       id="path3267" />
    <path
       style="fill:none;fill-rule:evenodd;stroke:#000000;stroke-width:1;stroke-linecap:butt;stroke-linejoin:miter;stroke-miterlimit:4;stroke-dasharray:1, 1;stroke-dashoffset:0;stroke-opacity:1"
       d="M 285.47321,31.613165 L 302.8596,31.613165 L 302.8596,69.190189 L 265.28257,69.190189 L 265.28257,48.999549"
       id="path3269" />
    <path
       style="font-size:40px;font-style:normal;font-weight:normal;line-height:125%;fill:#000000;fill-opacity:1;stroke:none;stroke-width:1px;stroke-linecap:butt;stroke-linejoin:miter;stroke-opacity:1;font-family:Bitstream Vera Sans"
       d="M 286.42468,25.175489 L 288.53015,25.175489 L 288.53015,25.816114 L 286.42468,25.816114 L 286.42468,25.175489 M 292.82703,23.480177 L 292.82703,24.152052 C 292.6239,24.040076 292.41947,23.956743 292.21375,23.902052 C 292.01062,23.844764 291.80489,23.816118 291.59656,23.816114 C 291.13041,23.816118 290.76843,23.964556 290.51062,24.261427 C 290.25281,24.555701 290.1239,24.969763 290.1239,25.503614 C 290.1239,26.03747 290.25281,26.452834 290.51062,26.749708 C 290.76843,27.04398 291.13041,27.191115 291.59656,27.191114 C 291.80489,27.191115 292.01062,27.163771 292.21375,27.109083 C 292.41947,27.051792 292.6239,26.967157 292.82703,26.855177 L 292.82703,27.519239 C 292.6265,27.612989 292.41817,27.683302 292.20203,27.730177 C 291.98848,27.777052 291.76062,27.800489 291.51843,27.800489 C 290.85958,27.800489 290.33614,27.593458 289.94812,27.179396 C 289.5601,26.765334 289.36609,26.206741 289.36609,25.503614 C 289.36609,24.790076 289.5614,24.228878 289.95203,23.820021 C 290.34525,23.411171 290.88301,23.206744 291.56531,23.206739 C 291.78666,23.206744 292.0028,23.230181 292.21375,23.277052 C 292.42468,23.321327 292.62911,23.389035 292.82703,23.480177 M 297.72156,25.046583 L 297.72156,27.687208 L 297.00281,27.687208 L 297.00281,25.070021 C 297.0028,24.655961 296.92207,24.346066 296.76062,24.140333 C 296.59916,23.934608 296.35697,23.831743 296.03406,23.831739 C 295.64603,23.831743 295.34005,23.955441 295.11609,24.202833 C 294.89213,24.450232 294.78015,24.787471 294.78015,25.214552 L 294.78015,27.687208 L 294.0575,27.687208 L 294.0575,21.609083 L 294.78015,21.609083 L 294.78015,23.991896 C 294.95202,23.728879 295.15385,23.532264 295.38562,23.402052 C 295.61999,23.271848 295.88952,23.206744 296.19421,23.206739 C 296.69681,23.206744 297.07702,23.362994 297.33484,23.675489 C 297.59265,23.985389 297.72155,24.44242 297.72156,25.046583 M 299.16296,23.312208 L 299.88171,23.312208 L 299.88171,27.687208 L 299.16296,27.687208 L 299.16296,23.312208 M 299.16296,21.609083 L 299.88171,21.609083 L 299.88171,22.519239 L 299.16296,22.519239 L 299.16296,21.609083 M 301.38171,21.609083 L 302.10046,21.609083 L 302.10046,27.687208 L 301.38171,27.687208 L 301.38171,21.609083 M 306.47937,23.976271 L 306.47937,21.609083 L 307.19812,21.609083 L 307.19812,27.687208 L 306.47937,27.687208 L 306.47937,27.030958 C 306.32832,27.291375 306.13692,27.485385 305.90515,27.612989 C 305.67598,27.737989 305.39994,27.800489 305.07703,27.800489 C 304.54838,27.800489 304.11739,27.589552 303.78406,27.167677 C 303.45333,26.745803 303.28796,26.191116 303.28796,25.503614 C 303.28796,24.816117 303.45333,24.26143 303.78406,23.839552 C 304.11739,23.417681 304.54838,23.206744 305.07703,23.206739 C 305.39994,23.206744 305.67598,23.270546 305.90515,23.398146 C 306.13692,23.52315 306.32832,23.715858 306.47937,23.976271 M 304.03015,25.503614 C 304.03015,26.032262 304.13822,26.447626 304.35437,26.749708 C 304.57312,27.049188 304.8726,27.198927 305.25281,27.198927 C 305.63301,27.198927 305.93249,27.049188 306.15125,26.749708 C 306.36999,26.447626 306.47937,26.032262 306.47937,25.503614 C 306.47937,24.974971 306.36999,24.560909 306.15125,24.261427 C 305.93249,23.959347 305.63301,23.808306 305.25281,23.808302 C 304.8726,23.808306 304.57312,23.959347 304.35437,24.261427 C 304.13822,24.560909 304.03015,24.974971 304.03015,25.503614 M 311.21375,23.984083 C 311.13301,23.937212 311.04447,23.903358 310.94812,23.882521 C 310.85437,23.859087 310.7502,23.847368 310.63562,23.847364 C 310.22937,23.847368 309.91687,23.980181 309.69812,24.245802 C 309.48197,24.508826 309.3739,24.887732 309.3739,25.382521 L 309.3739,27.687208 L 308.65125,27.687208 L 308.65125,23.312208 L 309.3739,23.312208 L 309.3739,23.991896 C 309.52494,23.726275 309.72156,23.52966 309.96375,23.402052 C 310.20593,23.271848 310.5002,23.206744 310.84656,23.206739 C 310.89603,23.206744 310.95072,23.21065 311.01062,23.218458 C 311.07051,23.223671 311.13692,23.232786 311.20984,23.245802 L 311.21375,23.984083 M 315.54578,25.320021 L 315.54578,25.671583 L 312.24109,25.671583 C 312.27234,26.166376 312.42077,26.54398 312.6864,26.804396 C 312.95463,27.062209 313.32702,27.191115 313.80359,27.191114 C 314.07963,27.191115 314.34655,27.157261 314.60437,27.089552 C 314.86478,27.021844 315.1226,26.920282 315.37781,26.784864 L 315.37781,27.464552 C 315.11999,27.573927 314.85567,27.65726 314.58484,27.714552 C 314.314,27.771844 314.03926,27.800489 313.76062,27.800489 C 313.0627,27.800489 312.50932,27.597365 312.10046,27.191114 C 311.69421,26.784865 311.49109,26.235387 311.49109,25.542677 C 311.49109,24.826534 311.6838,24.258826 312.06921,23.839552 C 312.45723,23.417681 312.97937,23.206744 313.63562,23.206739 C 314.22416,23.206744 314.689,23.396848 315.03015,23.777052 C 315.3739,24.15466 315.54577,24.668982 315.54578,25.320021 M 314.82703,25.109083 C 314.82181,24.715857 314.71114,24.402055 314.495,24.167677 C 314.28145,23.933306 313.9976,23.816118 313.64343,23.816114 C 313.24239,23.816118 312.92077,23.929399 312.67859,24.155958 C 312.439,24.382524 312.30098,24.701534 312.26453,25.112989 L 314.82703,25.109083 M 320.36218,25.046583 L 320.36218,27.687208 L 319.64343,27.687208 L 319.64343,25.070021 C 319.64343,24.655961 319.5627,24.346066 319.40125,24.140333 C 319.23978,23.934608 318.9976,23.831743 318.67468,23.831739 C 318.28666,23.831743 317.98067,23.955441 317.75671,24.202833 C 317.53275,24.450232 317.42077,24.787471 317.42078,25.214552 L 317.42078,27.687208 L 316.69812,27.687208 L 316.69812,23.312208 L 317.42078,23.312208 L 317.42078,23.991896 C 317.59265,23.728879 317.79447,23.532264 318.02625,23.402052 C 318.26062,23.271848 318.53015,23.206744 318.83484,23.206739 C 319.33744,23.206744 319.71765,23.362994 319.97546,23.675489 C 320.23327,23.985389 320.36218,24.44242 320.36218,25.046583"
       id="text4819" />
    <path
       style="font-size:40px;font-style:normal;font-weight:normal;line-height:125%;fill:#000000;fill-opacity:1;stroke:none;stroke-width:1px;stroke-linecap:butt;stroke-linejoin:miter;stroke-opacity:1;font-family:Bitstream Vera Sans"
       d="M 232.27333,52.274506 L 234.3788,52.274506 L 234.3788,52.915131 L 232.27333,52.915131 L 232.27333,52.274506 M 236.22255,54.129974 L 236.22255,56.450287 L 235.49989,56.450287 L 235.49989,50.411224 L 236.22255,50.411224 L 236.22255,51.075287 C 236.37359,50.814874 236.56369,50.622166 236.79286,50.497162 C 237.02463,50.369562 237.30067,50.30576 237.62099,50.305756 C 238.15223,50.30576 238.58322,50.516697 238.91396,50.938568 C 239.24728,51.360447 239.41395,51.915133 239.41396,52.602631 C 239.41395,53.290132 239.24728,53.844819 238.91396,54.266693 C 238.58322,54.688568 238.15223,54.899506 237.62099,54.899506 C 237.30067,54.899506 237.02463,54.837006 236.79286,54.712006 C 236.56369,54.584402 236.37359,54.390391 236.22255,54.129974 M 238.66786,52.602631 C 238.66786,52.073987 238.55848,51.659925 238.33974,51.360443 C 238.12359,51.058364 237.82541,50.907322 237.44521,50.907318 C 237.065,50.907322 236.76552,51.058364 236.54677,51.360443 C 236.33062,51.659925 236.22255,52.073987 236.22255,52.602631 C 236.22255,53.131278 236.33062,53.546642 236.54677,53.848724 C 236.76552,54.148204 237.065,54.297944 237.44521,54.297943 C 237.82541,54.297944 238.12359,54.148204 238.33974,53.848724 C 238.55848,53.546642 238.66786,53.131278 238.66786,52.602631 M 242.59364,52.587006 C 242.01291,52.587008 241.61057,52.653414 241.38661,52.786224 C 241.16265,52.919039 241.05067,53.145601 241.05067,53.465912 C 241.05067,53.721121 241.13401,53.924246 241.30067,54.075287 C 241.46994,54.223725 241.69911,54.297944 241.98817,54.297943 C 242.38661,54.297944 242.70562,54.157319 242.94521,53.876068 C 243.18739,53.592215 243.30848,53.215913 243.30849,52.747162 L 243.30849,52.587006 L 242.59364,52.587006 M 244.02724,52.290131 L 244.02724,54.786224 L 243.30849,54.786224 L 243.30849,54.122162 C 243.14442,54.387787 242.93999,54.584402 242.69521,54.712006 C 242.45041,54.837006 242.15093,54.899506 241.79677,54.899506 C 241.34885,54.899506 240.99208,54.774506 240.72646,54.524506 C 240.46343,54.271902 240.33192,53.934663 240.33192,53.512787 C 240.33192,53.020601 240.49599,52.649508 240.82411,52.399506 C 241.15484,52.149508 241.64703,52.024508 242.30067,52.024506 L 243.30849,52.024506 L 243.30849,51.954193 C 243.30848,51.623467 243.19911,51.368259 242.98036,51.188568 C 242.76421,51.00628 242.45953,50.915134 242.0663,50.915131 C 241.8163,50.915134 241.57281,50.945082 241.33583,51.004974 C 241.09885,51.064874 240.87099,51.154718 240.65224,51.274506 L 240.65224,50.610443 C 240.91526,50.508885 241.17046,50.433364 241.41786,50.383881 C 241.66526,50.331802 241.90614,50.30576 242.14052,50.305756 C 242.77333,50.30576 243.24598,50.469822 243.55849,50.797943 C 243.87098,51.126072 244.02723,51.623467 244.02724,52.290131 M 248.04677,51.083099 C 247.96604,51.036228 247.87749,51.002374 247.78114,50.981537 C 247.68739,50.958103 247.58322,50.946384 247.46864,50.946381 C 247.06239,50.946384 246.74989,51.079197 246.53114,51.344818 C 246.315,51.607842 246.20692,51.986748 246.20692,52.481537 L 246.20692,54.786224 L 245.48427,54.786224 L 245.48427,50.411224 L 246.20692,50.411224 L 246.20692,51.090912 C 246.35796,50.825291 246.55458,50.628676 246.79677,50.501068 C 247.03895,50.370864 247.33322,50.30576 247.67958,50.305756 C 247.72906,50.30576 247.78374,50.309666 247.84364,50.317474 C 247.90354,50.322687 247.96994,50.331802 248.04286,50.344818 L 248.04677,51.083099 M 252.3788,52.419037 L 252.3788,52.770599 L 249.07411,52.770599 C 249.10536,53.265393 249.2538,53.642996 249.51942,53.903412 C 249.78765,54.161225 250.16005,54.290131 250.63661,54.290131 C 250.91265,54.290131 251.17958,54.256277 251.43739,54.188568 C 251.69781,54.12086 251.95562,54.019298 252.21083,53.883881 L 252.21083,54.563568 C 251.95301,54.672943 251.68869,54.756276 251.41786,54.813568 C 251.14703,54.87086 250.87229,54.899506 250.59364,54.899506 C 249.89572,54.899506 249.34234,54.696381 248.93349,54.290131 C 248.52724,53.883882 248.32411,53.334403 248.32411,52.641693 C 248.32411,51.92555 248.51682,51.357842 248.90224,50.938568 C 249.29026,50.516697 249.81239,50.30576 250.46864,50.305756 C 251.05718,50.30576 251.52202,50.495864 251.86317,50.876068 C 252.20692,51.253676 252.37879,51.767998 252.3788,52.419037 M 251.66005,52.208099 C 251.65484,51.814873 251.54416,51.501071 251.32802,51.266693 C 251.11447,51.032322 250.83062,50.915134 250.47646,50.915131 C 250.07541,50.915134 249.7538,51.028416 249.51161,51.254974 C 249.27203,51.48154 249.13401,51.80055 249.09755,52.212006 L 251.66005,52.208099 M 257.19521,52.145599 L 257.19521,54.786224 L 256.47646,54.786224 L 256.47646,52.169037 C 256.47645,51.754977 256.39572,51.445082 256.23427,51.239349 C 256.07281,51.033624 255.83062,50.930759 255.50771,50.930756 C 255.11968,50.930759 254.81369,51.054457 254.58974,51.301849 C 254.36578,51.549248 254.2538,51.886488 254.2538,52.313568 L 254.2538,54.786224 L 253.53114,54.786224 L 253.53114,50.411224 L 254.2538,50.411224 L 254.2538,51.090912 C 254.42567,50.827895 254.6275,50.631281 254.85927,50.501068 C 255.09364,50.370864 255.36317,50.30576 255.66786,50.305756 C 256.17046,50.30576 256.55067,50.46201 256.80849,50.774506 C 257.0663,51.084405 257.1952,51.541436 257.19521,52.145599 M 259.34755,49.169037 L 259.34755,50.411224 L 260.82802,50.411224 L 260.82802,50.969818 L 259.34755,50.969818 L 259.34755,53.344818 C 259.34755,53.70159 259.39573,53.930756 259.49208,54.032318 C 259.59104,54.133881 259.79026,54.184662 260.08974,54.184662 L 260.82802,54.184662 L 260.82802,54.786224 L 260.08974,54.786224 C 259.53505,54.786224 259.15224,54.68336 258.9413,54.477631 C 258.73036,54.269298 258.62489,53.891694 258.62489,53.344818 L 258.62489,50.969818 L 258.09755,50.969818 L 258.09755,50.411224 L 258.62489,50.411224 L 258.62489,49.169037 L 259.34755,49.169037"
       id="text4823" />
    <path
       style="font-size:40px;font-style:normal;font-weight:normal;line-height:125%;fill:#000000;fill-opacity:1;stroke:none;stroke-width:1px;stroke-linecap:butt;stroke-linejoin:miter;stroke-opacity:1;font-family:Bitstream Vera Sans"
       d="M 289.99994,35.466187 L 288.5976,36.223999 L 289.99994,36.985718 L 289.77338,37.36853 L 288.46088,36.575562 L 288.46088,38.048218 L 288.01556,38.048218 L 288.01556,36.575562 L 286.70306,37.36853 L 286.4765,36.985718 L 287.87885,36.223999 L 286.4765,35.466187 L 286.70306,35.079468 L 288.01556,35.872437 L 288.01556,34.39978 L 288.46088,34.39978 L 288.46088,35.872437 L 289.77338,35.079468 L 289.99994,35.466187"
       id="text4827" />
    <path
       style="font-size:40px;font-style:normal;font-weight:normal;line-height:125%;fill:#000000;fill-opacity:1;stroke:none;stroke-width:1px;stroke-linecap:butt;stroke-linejoin:miter;stroke-opacity:1;font-family:Bitstream Vera Sans"
       d="M 268.77484,53.803375 L 270.0639,53.803375 L 270.0639,49.354156 L 268.66156,49.635406 L 268.66156,48.916656 L 270.05609,48.635406 L 270.84515,48.635406 L 270.84515,53.803375 L 272.13422,53.803375 L 272.13422,54.467438 L 268.77484,54.467438 L 268.77484,53.803375"
       id="text4831" />
    <path
       style="font-size:40px;font-style:normal;font-weight:normal;line-height:125%;fill:#000000;fill-opacity:1;stroke:none;stroke-width:1px;stroke-linecap:butt;stroke-linejoin:miter;stroke-opacity:1;font-family:Bitstream Vera Sans"
       d="M 104.43893,25.786943 L 106.5444,25.786943 L 106.5444,26.427568 L 104.43893,26.427568 L 104.43893,25.786943 M 107.69284,22.220537 L 108.41159,22.220537 L 108.41159,28.298662 L 107.69284,28.298662 L 107.69284,22.220537 M 111.89987,26.099443 C 111.31914,26.099446 110.9168,26.165852 110.69284,26.298662 C 110.46888,26.431477 110.3569,26.658039 110.3569,26.97835 C 110.3569,27.233559 110.44024,27.436684 110.6069,27.587725 C 110.77617,27.736163 111.00534,27.810381 111.2944,27.810381 C 111.69284,27.810381 112.01185,27.669757 112.25143,27.388506 C 112.49362,27.104653 112.61471,26.728351 112.61472,26.2596 L 112.61472,26.099443 L 111.89987,26.099443 M 113.33347,25.802568 L 113.33347,28.298662 L 112.61472,28.298662 L 112.61472,27.6346 C 112.45065,27.900225 112.24622,28.096839 112.00143,28.224443 C 111.75664,28.349443 111.45716,28.411943 111.103,28.411943 C 110.65508,28.411943 110.29831,28.286943 110.03268,28.036943 C 109.76966,27.78434 109.63815,27.447101 109.63815,27.025225 C 109.63815,26.533039 109.80221,26.161946 110.13034,25.911943 C 110.46107,25.661946 110.95326,25.536946 111.6069,25.536943 L 112.61472,25.536943 L 112.61472,25.466631 C 112.61471,25.135905 112.50534,24.880697 112.28659,24.701006 C 112.07044,24.518718 111.76575,24.427572 111.37253,24.427568 C 111.12253,24.427572 110.87904,24.45752 110.64206,24.517412 C 110.40508,24.577312 110.17721,24.667155 109.95847,24.786943 L 109.95847,24.122881 C 110.22149,24.021323 110.47669,23.945802 110.72409,23.896318 C 110.97148,23.84424 111.21237,23.818198 111.44675,23.818193 C 112.07956,23.818198 112.55221,23.98226 112.86472,24.310381 C 113.17721,24.63851 113.33346,25.135905 113.33347,25.802568 M 116.63815,28.704912 C 116.43503,29.225745 116.23711,29.565588 116.0444,29.724443 C 115.85169,29.883296 115.59388,29.962723 115.27097,29.962725 L 114.69675,29.962725 L 114.69675,29.361162 L 115.11862,29.361162 C 115.31654,29.361161 115.47018,29.314286 115.57956,29.220537 C 115.68893,29.126786 115.81003,28.905432 115.94284,28.556475 L 116.07175,28.22835 L 114.30222,23.923662 L 115.06393,23.923662 L 116.43112,27.345537 L 117.79831,23.923662 L 118.56003,23.923662 L 116.63815,28.704912 M 121.24753,24.427568 C 120.86211,24.427572 120.55742,24.578614 120.33347,24.880693 C 120.10951,25.180176 119.99753,25.591634 119.99753,26.115068 C 119.99753,26.638508 120.1082,27.051268 120.32956,27.35335 C 120.55352,27.652829 120.85951,27.802569 121.24753,27.802568 C 121.63034,27.802569 121.93372,27.651527 122.15768,27.349443 C 122.38164,27.047361 122.49362,26.635903 122.49362,26.115068 C 122.49362,25.596842 122.38164,25.186686 122.15768,24.8846 C 121.93372,24.579916 121.63034,24.427572 121.24753,24.427568 M 121.24753,23.818193 C 121.87253,23.818198 122.36341,24.021323 122.72018,24.427568 C 123.07695,24.833822 123.25534,25.396321 123.25534,26.115068 C 123.25534,26.831216 123.07695,27.393715 122.72018,27.802568 C 122.36341,28.208819 121.87253,28.411943 121.24753,28.411943 C 120.61992,28.411943 120.12774,28.208819 119.77097,27.802568 C 119.4168,27.393715 119.23972,26.831216 119.23972,26.115068 C 119.23972,25.396321 119.4168,24.833822 119.77097,24.427568 C 120.12774,24.021323 120.61992,23.818198 121.24753,23.818193 M 124.36862,26.5721 L 124.36862,23.923662 L 125.08737,23.923662 L 125.08737,26.544756 C 125.08737,26.95882 125.1681,27.270017 125.32956,27.47835 C 125.49102,27.684079 125.7332,27.786944 126.05612,27.786943 C 126.44414,27.786944 126.75013,27.663246 126.97409,27.41585 C 127.20065,27.168455 127.31393,26.831216 127.31393,26.404131 L 127.31393,23.923662 L 128.03268,23.923662 L 128.03268,28.298662 L 127.31393,28.298662 L 127.31393,27.626787 C 127.13945,27.892413 126.93633,28.090329 126.70456,28.220537 C 126.47539,28.348141 126.20846,28.411943 125.90378,28.411943 C 125.40117,28.411943 125.01966,28.255693 124.75925,27.943193 C 124.49883,27.630694 124.36862,27.173663 124.36862,26.5721 M 130.2319,22.681475 L 130.2319,23.923662 L 131.71237,23.923662 L 131.71237,24.482256 L 130.2319,24.482256 L 130.2319,26.857256 C 130.2319,27.214028 130.28008,27.443194 130.37643,27.544756 C 130.47539,27.646319 130.67461,27.6971 130.97409,27.6971 L 131.71237,27.6971 L 131.71237,28.298662 L 130.97409,28.298662 C 130.4194,28.298662 130.03659,28.195798 129.82565,27.990068 C 129.61471,27.781736 129.50925,27.404132 129.50925,26.857256 L 129.50925,24.482256 L 128.9819,24.482256 L 128.9819,23.923662 L 129.50925,23.923662 L 129.50925,22.681475 L 130.2319,22.681475"
       id="text4835" />
    <path
       style="font-size:40px;font-style:normal;font-weight:normal;line-height:125%;fill:#000000;fill-opacity:1;stroke:none;stroke-width:1px;stroke-linecap:butt;stroke-linejoin:miter;stroke-opacity:1;font-family:Bitstream Vera Sans"
       d="M 106.06036,38.912777 L 107.34943,38.912777 L 107.34943,34.463558 L 105.94708,34.744808 L 105.94708,34.026058 L 107.34161,33.744808 L 108.13068,33.744808 L 108.13068,38.912777 L 109.41974,38.912777 L 109.41974,39.576839 L 106.06036,39.576839 L 106.06036,38.912777"
       id="text4839" />
  </g>
</svg>
